<svg xmlns="http://www.w3.org/2000/svg" width="1252" height="233" viewBox="0 0 1252 233">
  <g id="Groupe_84" data-name="Groupe 84" transform="translate(-334 -3922)">
    <rect id="Rectangle_647" data-name="Rectangle 647" width="1252" height="233" transform="translate(334 3922)" fill="#f2f2f2"/>
    <g id="HTML5_Logo" transform="translate(432.935 3981.539)">
      <path id="Tracé_1" data-name="Tracé 1" d="M81.978,183,74.633,100.62h80.71l-7.353,82.371-33.051,9.163Z" transform="translate(-74.633 -78.232)" fill="#e44d26"/>
      <path id="Tracé_2" data-name="Tracé 2" d="M256,208.688l26.707-7.4,6.284-70.39H256Z" transform="translate(-215.645 -101.769)" fill="#f16529"/>
      <path id="Tracé_3" data-name="Tracé 3" d="M167.468,196.756H154.1l-.923-10.347h14.294v-10.1H142.132l.242,2.711,2.483,27.844h22.611Z" transform="translate(-127.113 -137.076)" fill="#ebebeb"/>
      <path id="Tracé_4" data-name="Tracé 4" d="M178.568,347.418l-.044.012-11.253-3.039-.719-8.058H156.409l1.416,15.865,20.7,5.746.047-.013Z" transform="translate(-138.213 -261.497)" fill="#ebebeb"/>
      <path id="Tracé_5" data-name="Tracé 5" d="M108.382,0h5.135V5.073h4.7V0h5.135V15.363h-5.135V10.218h-4.7v5.144h-5.135V0Z" transform="translate(-100.873)"/>
      <path id="Tracé_6" data-name="Tracé 6" d="M190.2,5.094h-4.52V0h14.178V5.094h-4.522V15.363H190.2V5.094Z" transform="translate(-160.97)"/>
      <path id="Tracé_7" data-name="Tracé 7" d="M259.511,0h5.354l3.294,5.4,3.29-5.4H276.8V15.363h-5.114V7.748l-3.533,5.462h-.088l-3.535-5.462v7.615h-5.024Z" transform="translate(-218.375)"/>
      <path id="Tracé_8" data-name="Tracé 8" d="M348.72,0h5.136V10.285h7.221v5.078H348.72Z" transform="translate(-287.734)"/>
      <path id="Tracé_9" data-name="Tracé 9" d="M255.843,268.217v10.1h12.442l-1.173,13.1-11.269,3.042v10.512l20.714-5.741.152-1.707,2.374-26.6.247-2.713H255.843Z" transform="translate(-215.523 -208.538)" fill="#fff"/>
      <path id="Tracé_10" data-name="Tracé 10" d="M255.843,176.305v10.1h24.406l.2-2.271.46-5.122.242-2.711Z" transform="translate(-215.523 -137.076)" fill="#fff"/>
    </g>
    <g id="layer1" transform="translate(565.749 3981.539)">
      <g id="g3013" transform="translate(0 0)">
        <path id="polygon2989" d="M155.343,100.62l-7.353,82.371-33.051,9.163L81.978,183,74.633,100.62Z" transform="translate(-74.633 -78.232)" fill="#264de4"/>
        <path id="polygon2991" d="M282.707,201.284l6.284-70.39H256v77.794Z" transform="translate(-215.645 -101.769)" fill="#2965f1"/>
        <path id="polygon2993" d="M150.31,268.217l.906,10.1h22.611v-10.1Z" transform="translate(-133.472 -208.537)" fill="#ebebeb"/>
        <path id="polygon2995" d="M167.468,176.305H142.132l.919,10.1h24.418Z" transform="translate(-127.113 -137.076)" fill="#ebebeb"/>
        <path id="polygon2997" d="M178.568,357.931V347.418l-.044.012-11.253-3.039-.719-8.058H156.409l1.416,15.865,20.7,5.746Z" transform="translate(-138.213 -261.497)" fill="#ebebeb"/>
        <path id="path2999" d="M160,0h12.238V5.118h-7.12v5.118h7.12v5.118H160Z" transform="translate(-141.005)"/>
        <path id="path3001" d="M226,0h12.238V4.45h-7.12v.89h7.12V15.575H226V10.9h7.12v-.89H226Z" transform="translate(-192.32)"/>
        <path id="path3003" d="M292,0h12.238V4.45h-7.12v.89h7.12V15.575H292V10.9h7.12v-.89H292Z" transform="translate(-243.635)"/>
        <path id="polygon3005" d="M268.285,206.86l-1.173,13.1-11.269,3.042v10.512l20.714-5.741.152-1.707,2.374-26.6.247-2.713,1.824-20.451H255.843v10.1h14.238l-.919,10.347H255.843v10.1Z" transform="translate(-215.523 -137.076)" fill="#fff"/>
      </g>
    </g>
    <g id="Layer_2_1_" transform="translate(987.219 3996.145)">
      <g id="Surfaces">
        <g id="Photo_Surface">
          <g id="Outline_no_shadow">
            <path id="Tracé_17" data-name="Tracé 17" d="M15.3,0H71.107a15.289,15.289,0,0,1,15.3,15.3V68.947a15.289,15.289,0,0,1-15.3,15.3H15.3A15.289,15.289,0,0,1,0,68.947V15.3A15.289,15.289,0,0,1,15.3,0Z" fill="#001e36"/>
          </g>
        </g>
      </g>
      <g id="Outlined_Mnemonics_Logos" transform="translate(19.442 21.422)">
        <g id="Ps">
          <path id="Tracé_18" data-name="Tracé 18" d="M54,97.16V60.112c0-.252.108-.4.36-.4.612,0,1.188,0,2.016-.036.864-.036,1.764-.036,2.736-.072s2.016-.036,3.132-.072,2.2-.036,3.276-.036a21.17,21.17,0,0,1,7.417,1.116,12.857,12.857,0,0,1,4.825,2.952,11.464,11.464,0,0,1,2.628,4.1,13.78,13.78,0,0,1,.828,4.68,12.872,12.872,0,0,1-2.16,7.669,12.335,12.335,0,0,1-5.8,4.392,23.334,23.334,0,0,1-8.1,1.224c-.864,0-1.44,0-1.8-.036s-.864-.036-1.548-.036V97.124a.448.448,0,0,1-.4.5H54.432C54.144,97.628,54,97.484,54,97.16Zm7.849-30.5v12.1c.5.036.972.072,1.4.072h1.908a13.449,13.449,0,0,0,4.14-.648,6.192,6.192,0,0,0,2.952-1.908,5.563,5.563,0,0,0,1.116-3.708,5.926,5.926,0,0,0-.828-3.2,5.221,5.221,0,0,0-2.52-2.052,10.565,10.565,0,0,0-4.248-.72c-.936,0-1.764,0-2.448.036a8.244,8.244,0,0,0-1.476.036Z" transform="translate(-54 -59.5)" fill="#31a8ff"/>
          <path id="Tracé_19" data-name="Tracé 19" d="M158.906,92.437a12.744,12.744,0,0,0-3.456-1.224,18.979,18.979,0,0,0-4.032-.468,7.249,7.249,0,0,0-2.16.252,1.849,1.849,0,0,0-1.116.72,1.908,1.908,0,0,0-.288.972,1.6,1.6,0,0,0,.36.936,4.063,4.063,0,0,0,1.224.972c.828.432,1.692.828,2.556,1.188a26.077,26.077,0,0,1,5.545,2.628,8.377,8.377,0,0,1,2.844,2.988,7.772,7.772,0,0,1,.828,3.708,8.377,8.377,0,0,1-1.4,4.788,9.022,9.022,0,0,1-4.032,3.2,16.5,16.5,0,0,1-6.517,1.152,24.8,24.8,0,0,1-4.9-.468,14.523,14.523,0,0,1-3.672-1.152.708.708,0,0,1-.4-.684v-6.265a.391.391,0,0,1,.144-.324.274.274,0,0,1,.324.036,15.411,15.411,0,0,0,4.464,1.764,16.761,16.761,0,0,0,4.248.54,6.872,6.872,0,0,0,2.988-.5,1.673,1.673,0,0,0,.972-1.512,1.908,1.908,0,0,0-.864-1.44,15.27,15.27,0,0,0-3.528-1.692,22.028,22.028,0,0,1-5.113-2.592,9.322,9.322,0,0,1-2.736-3.06,7.725,7.725,0,0,1-.828-3.672,8.468,8.468,0,0,1,1.224-4.356,8.875,8.875,0,0,1,3.78-3.312,13.962,13.962,0,0,1,6.373-1.26,31.039,31.039,0,0,1,4.464.324,12.668,12.668,0,0,1,3.1.828.632.632,0,0,1,.36.324,1.808,1.808,0,0,1,.072.432v5.869a.443.443,0,0,1-.18.36A.959.959,0,0,1,158.906,92.437Z" transform="translate(-109.221 -75.371)" fill="#31a8ff"/>
        </g>
      </g>
    </g>
    <g id="c--4" transform="translate(847.979 3989.549)">
      <path id="Tracé_20" data-name="Tracé 20" d="M86.964,28.737A8.629,8.629,0,0,0,85.9,24.4a8.3,8.3,0,0,0-3.147-3.066Q65.387,11.316,48.013,1.316a8.529,8.529,0,0,0-9.243.092C34.162,4.125,11.09,17.344,4.214,21.326A8.031,8.031,0,0,0,0,28.734Q0,48.872,0,69.01A8.661,8.661,0,0,0,1.017,73.27a8.275,8.275,0,0,0,3.194,3.149c6.876,3.982,29.951,17.2,34.558,19.918a8.53,8.53,0,0,0,9.245.092Q65.376,86.4,82.758,76.415a8.278,8.278,0,0,0,3.194-3.148,8.673,8.673,0,0,0,1.016-4.26s0-26.844,0-40.27" transform="translate(0 0)" fill="#a179dc"/>
      <path id="Tracé_21" data-name="Tracé 21" d="M45.588,143.241l-42.6,24.528a8.275,8.275,0,0,0,3.194,3.149c6.876,3.982,29.951,17.2,34.558,19.918a8.53,8.53,0,0,0,9.245.092Q67.347,180.9,84.729,170.914a8.278,8.278,0,0,0,3.194-3.148Z" transform="translate(-1.971 -94.5)" fill="#280068"/>
      <path id="Tracé_22" data-name="Tracé 22" d="M171.529,76.034a8.629,8.629,0,0,0-1.063-4.342L128.182,96.039l42.335,24.525a8.68,8.68,0,0,0,1.016-4.26s0-26.844,0-40.27" transform="translate(-84.565 -47.297)" fill="#390091"/>
      <g id="Groupe_7" data-name="Groupe 7" transform="translate(11.384 16.546)">
        <path id="Tracé_23" data-name="Tracé 23" d="M188.559,116.294v4.585h4.585v-4.585h2.292v4.585h4.585v2.292h-4.585v4.585h4.585v2.292h-4.585v4.585h-2.292v-4.585h-4.585v4.585h-2.292v-4.585h-4.585v-2.292h4.585v-4.585h-4.585v-2.292h4.585v-4.585Zm4.585,6.877h-4.585v4.585h4.585Z" transform="translate(-131.244 -93.268)" fill="#fff"/>
        <path id="Tracé_24" data-name="Tracé 24" d="M65.782,48.625A32.314,32.314,0,0,1,93.774,64.773l-.054-.093-14.07,8.1a16.088,16.088,0,0,0-13.683-7.926h-.184a16.1,16.1,0,1,0,14.027,23.99l-.067.117L93.791,97.1a32.316,32.316,0,0,1-27.648,16.175l-.36,0a32.326,32.326,0,1,1,0-64.653Z" transform="translate(-33.456 -48.625)" fill="#fff"/>
      </g>
    </g>
    <g id="adobe-xd" transform="translate(1125.924 3996.145)">
      <path id="Tracé_25" data-name="Tracé 25" d="M15.3,0H71.107a15.289,15.289,0,0,1,15.3,15.3V68.947a15.289,15.289,0,0,1-15.3,15.3H15.3A15.289,15.289,0,0,1,0,68.947V15.3A15.289,15.289,0,0,1,15.3,0Z" fill="#470137"/>
      <g id="Groupe_8" data-name="Groupe 8" transform="translate(12.566 18.494)">
        <path id="Tracé_26" data-name="Tracé 26" d="M67.833,54.956,57.024,72.749,68.553,91.619a.617.617,0,0,1,.072.431c-.036.144-.18.036-.4.072h-8.25c-.576,0-.973-.036-1.225-.4-.757-1.51-1.549-2.983-2.306-4.493-.757-1.474-1.585-2.983-2.45-4.529s-1.729-3.091-2.594-4.673h-.072c-.757,1.546-1.585,3.091-2.414,4.637s-1.657,3.091-2.45,4.6c-.829,1.51-1.657,3.055-2.486,4.529-.144.359-.432.4-.829.4H35.227c-.144,0-.252.072-.252-.108a.5.5,0,0,1,.072-.4l11.2-18.331L35.335,54.92c-.108-.144-.144-.288-.072-.359a.418.418,0,0,1,.36-.144H43.8a2.131,2.131,0,0,1,.5.072,1.021,1.021,0,0,1,.36.323c.685,1.546,1.477,3.091,2.306,4.637.865,1.546,1.693,3.055,2.594,4.565.865,1.51,1.657,3.019,2.414,4.565h.072c.757-1.582,1.549-3.127,2.342-4.637s1.621-3.019,2.45-4.529,1.621-3.055,2.414-4.529a.611.611,0,0,1,.216-.359.688.688,0,0,1,.468-.072h7.6a.332.332,0,0,1,.4.252c.036.036-.036.18-.108.252ZM84.478,92.877a17.947,17.947,0,0,1-7.746-1.617,12.55,12.55,0,0,1-5.44-4.888,15.524,15.524,0,0,1-1.982-8.2,14.736,14.736,0,0,1,1.982-7.584,14.945,14.945,0,0,1,5.728-5.571,18.464,18.464,0,0,1,9.115-2.085,6.448,6.448,0,0,1,.757.036c.324.036.685.036,1.117.072V51.685c0-.252.108-.4.36-.4h7.314a.323.323,0,0,1,.36.252V85.832c0,.647.036,1.366.072,2.157.072.755.108,1.474.144,2.085a.584.584,0,0,1-.36.575,27.564,27.564,0,0,1-5.873,1.725,31.853,31.853,0,0,1-5.548.5Zm3.531-7.189V69.873a9.233,9.233,0,0,0-.973-.18c-.4-.036-.793-.072-1.189-.072a8.9,8.9,0,0,0-4.071.935,8.071,8.071,0,0,0-3.062,2.66,7.954,7.954,0,0,0-1.189,4.565,10,10,0,0,0,.612,3.7,7.023,7.023,0,0,0,1.621,2.552,6.227,6.227,0,0,0,2.45,1.438,9.451,9.451,0,0,0,2.99.467c.54,0,1.045-.036,1.513-.072A3.158,3.158,0,0,0,88.008,85.688Z" transform="translate(-34.961 -51.284)" fill="#ff61f6"/>
      </g>
    </g>
    <g id="Illustrator" transform="translate(1264.093 3996.145)">
      <path id="_16" d="M-2252.444-270.6h57.916a13.149,13.149,0,0,1,13.156,13.156v57.936a13.149,13.149,0,0,1-13.156,13.156h-57.916a13.149,13.149,0,0,1-13.156-13.156v-57.916A13.153,13.153,0,0,1-2252.444-270.6Z" transform="translate(2265.6 270.6)" fill="#300"/>
      <path id="_30" d="M-2151.852-121.254h-12.859l-2.635,8.579a.663.663,0,0,1-.674.5h-6.518c-.377,0-.5-.2-.4-.614l11.1-32.059c.119-.337.218-.713.337-1.149a7.682,7.682,0,0,0,.218-1.9.366.366,0,0,1,.3-.4h8.956c.257,0,.416.1.436.277l12.661,35.269c.119.376,0,.555-.337.555h-7.232a.519.519,0,0,1-.555-.4Zm-10.917-5.924h9.431c-.218-.733-.99-2.457-1.288-3.388s-.713-1.664-1.03-2.715c-.337-1.05-.674-2.12-1.01-3.17s-.634-2.08-.932-3.071c-.277-.991-.535-1.882-.752-2.695h-.06c-.317,1.506-.713,2.992-1.169,4.458-.515,1.664-1.05,3.368-1.585,5.112-.535,1.763-1.09,4-1.605,5.469Z" transform="translate(2192.926 172.532)" fill="#ff9a00"/>
      <path id="_31" d="M-1982.17-153.943a4.078,4.078,0,0,1-3.071-1.228,4.441,4.441,0,0,1-1.169-3.17,4.109,4.109,0,0,1,1.249-3.091,4.272,4.272,0,0,1,3.091-1.189,4.219,4.219,0,0,1,3.15,1.189,4.32,4.32,0,0,1,1.149,3.091,4.374,4.374,0,0,1-1.189,3.17A4.31,4.31,0,0,1-1982.17-153.943Zm-3.606,29.741v-25.441c0-.337.139-.5.436-.5h6.321c.3,0,.436.159.436.5V-124.2c0,.376-.139.555-.436.555h-6.261C-1985.6-123.648-1985.776-123.826-1985.776-124.2Z" transform="translate(2041.731 184.021)" fill="#ff9a00"/>
    </g>
    <g id="Layer_1" data-name="Layer 1" transform="translate(706.596 3981.539)">
      <g id="Groupe_6" data-name="Groupe 6">
        <path id="Tracé_11" data-name="Tracé 11" d="M80.928,22.22H0l7.585,82.274,32.884,9.324h0l32.864-9.324Z" transform="translate(0 0.104)" fill="#e6a329"/>
        <path id="Tracé_12" data-name="Tracé 12" d="M40.28,28.89v77.924h0L66.9,99.269l6.48-70.379Z" transform="translate(0.189 0.136)" fill="#f1bf22"/>
        <path id="Tracé_13" data-name="Tracé 13" d="M61.565,38.94H20.613l-2.853,30.8.06-.191H52.613L51.478,82.584,40.386,85.779,29.113,82.534l-.673-7.887H18.212L19.669,90.41l20.717,5.877L61.093,90.41l2.843-30.924H27.023L27.5,49.168h25.62l.382,5.908H63.815Z" transform="translate(0.083 0.183)" fill="#fff"/>
        <path id="Tracé_14" data-name="Tracé 14" d="M40.386,38.94H20.613l-2.843,30.8.06-.191H40.386V59.486H28.45l.472-10.308H40.386V38.95ZM28.44,74.647H18.212L19.669,90.4l20.707,5.867V85.779L29.113,82.534Z" transform="translate(0.083 0.183)" fill="#ebebeb"/>
        <g id="Groupe_5" data-name="Groupe 5" transform="translate(25.389)">
          <path id="Tracé_15" data-name="Tracé 15" d="M32.474,10.188h-7.2v5.174H37.628V0H32.474Z" transform="translate(-25.27)" fill="#231f20"/>
          <path id="Tracé_16" data-name="Tracé 16" d="M55.339.08H42.79V5.455c1.678,1.678,2.552,2.482,4.983,4.913H42.79v4.9H55.339v-4.9L50.325,5.455h5.013Z" transform="translate(-25.188 0)" fill="#231f20"/>
        </g>
      </g>
    </g>
    <text id="React_et_VueJs" data-name="React et VueJs" transform="translate(706.06 4126)" fill="#707070" font-size="13" font-family="SegoeUI, Segoe UI"><tspan x="0" y="0">React et VueJs</tspan></text>
    <g id="vlpa" transform="translate(1400.656 3996.145)">
      <g id="vlpb">
        <g id="vlpc">
          <g id="vlpd">
            <path id="Tracé_31" data-name="Tracé 31" d="M15.3,0H71.107a15.289,15.289,0,0,1,15.3,15.3V68.947a15.289,15.289,0,0,1-15.3,15.3H15.3A15.289,15.289,0,0,1,0,68.947V15.3A15.289,15.289,0,0,1,15.3,0Z" fill="#00005b"/>
          </g>
        </g>
      </g>
      <g id="vlpe" transform="translate(20.522 21.35)">
        <g id="vlpf">
          <path id="Tracé_32" data-name="Tracé 32" d="M57,97V59.912c0-.252.108-.4.36-.4.612,0,1.188,0,2.016-.036.864-.036,1.764-.036,2.736-.072s2.016-.036,3.132-.072,2.2-.036,3.276-.036a21.17,21.17,0,0,1,7.417,1.116,12.857,12.857,0,0,1,4.825,2.952,11.464,11.464,0,0,1,2.628,4.1,13.781,13.781,0,0,1,.828,4.68,12.872,12.872,0,0,1-2.16,7.669,12.335,12.335,0,0,1-5.8,4.392,23.334,23.334,0,0,1-8.1,1.224c-.864,0-1.44,0-1.8-.036s-.864-.036-1.548-.036V96.924a.448.448,0,0,1-.4.5H57.432c-.288,0-.432-.144-.432-.468Zm7.849-30.5V78.6c.5.036.972.072,1.4.072h1.908a13.449,13.449,0,0,0,4.14-.648,6.191,6.191,0,0,0,2.952-1.908,5.563,5.563,0,0,0,1.116-3.708,5.926,5.926,0,0,0-.828-3.2,5.221,5.221,0,0,0-2.52-2.052,10.565,10.565,0,0,0-4.248-.72c-.936,0-1.764,0-2.448.036a8.243,8.243,0,0,0-1.476.036Z" transform="translate(-57 -59.3)" fill="#99f"/>
          <path id="Tracé_33" data-name="Tracé 33" d="M146.348,84.1h6.3a.811.811,0,0,1,.756.576,3.657,3.657,0,0,1,.216.9c.072.36.144.756.18,1.116.036.4.072.828.072,1.3a13.4,13.4,0,0,1,3.852-3.1,11.158,11.158,0,0,1,5.473-1.4.448.448,0,0,1,.5.4v7.165c0,.288-.18.4-.576.4a15.655,15.655,0,0,0-3.888.36,14.816,14.816,0,0,0-3.024.972,5.6,5.6,0,0,0-1.836,1.332v18.362c0,.36-.144.5-.468.5h-7.093a.5.5,0,0,1-.576-.432V92.457c0-.864,0-1.764-.036-2.7s-.036-1.872-.072-2.808c0-.828-.072-1.62-.144-2.448a.332.332,0,0,1,.252-.4c0-.036.072-.036.108,0Z" transform="translate(-113.944 -74.779)" fill="#99f"/>
        </g>
      </g>
    </g>
  </g>
</svg>
