<svg xmlns="http://www.w3.org/2000/svg" width="220" height="790" viewBox="0 0 220 790">
  <g id="Groupe_73" data-name="Groupe 73" transform="translate(0 -6832)">
    <rect id="Rectangle_599" data-name="Rectangle 599" width="30" height="11" transform="translate(11 6832) rotate(90)" fill="#f2f2f2"/>
    <rect id="Rectangle_603" data-name="Rectangle 603" width="30" height="11" transform="translate(87 6832) rotate(90)" fill="#f2f2f2"/>
    <rect id="Rectangle_600" data-name="Rectangle 600" width="30" height="11" transform="translate(30 6832) rotate(90)" fill="#f2f2f2"/>
    <rect id="Rectangle_604" data-name="Rectangle 604" width="30" height="11" transform="translate(106 6832) rotate(90)" fill="#f2f2f2"/>
    <rect id="Rectangle_601" data-name="Rectangle 601" width="30" height="11" transform="translate(49 6832) rotate(90)" fill="#f2f2f2"/>
    <rect id="Rectangle_605" data-name="Rectangle 605" width="30" height="11" transform="translate(125 6832) rotate(90)" fill="#f2f2f2"/>
    <rect id="Rectangle_602" data-name="Rectangle 602" width="30" height="11" transform="translate(68 6832) rotate(90)" fill="#f2f2f2"/>
    <rect id="Rectangle_599-2" data-name="Rectangle 599" width="30" height="11" transform="translate(11 6870) rotate(90)" fill="#f2f2f2"/>
    <rect id="Rectangle_603-2" data-name="Rectangle 603" width="30" height="11" transform="translate(87 6870) rotate(90)" fill="#f2f2f2"/>
    <rect id="Rectangle_600-2" data-name="Rectangle 600" width="30" height="11" transform="translate(30 6870) rotate(90)" fill="#f2f2f2"/>
    <rect id="Rectangle_601-2" data-name="Rectangle 601" width="30" height="11" transform="translate(49 6870) rotate(90)" fill="#f2f2f2"/>
    <rect id="Rectangle_602-2" data-name="Rectangle 602" width="30" height="11" transform="translate(68 6870) rotate(90)" fill="#f2f2f2"/>
    <rect id="Rectangle_599-3" data-name="Rectangle 599" width="30" height="11" transform="translate(11 6908) rotate(90)" fill="#f2f2f2"/>
    <rect id="Rectangle_603-3" data-name="Rectangle 603" width="30" height="11" transform="translate(87 6908) rotate(90)" fill="#f2f2f2"/>
    <rect id="Rectangle_613" data-name="Rectangle 613" width="30" height="11" transform="translate(106 6908) rotate(90)" fill="#f2f2f2"/>
    <rect id="Rectangle_614" data-name="Rectangle 614" width="30" height="11" transform="translate(125 6908) rotate(90)" fill="#f2f2f2"/>
    <rect id="Rectangle_615" data-name="Rectangle 615" width="30" height="11" transform="translate(144 6908) rotate(90)" fill="#f2f2f2"/>
    <rect id="Rectangle_600-3" data-name="Rectangle 600" width="30" height="11" transform="translate(30 6908) rotate(90)" fill="#f2f2f2"/>
    <rect id="Rectangle_601-3" data-name="Rectangle 601" width="30" height="11" transform="translate(49 6908) rotate(90)" fill="#f2f2f2"/>
    <rect id="Rectangle_602-3" data-name="Rectangle 602" width="30" height="11" transform="translate(68 6908) rotate(90)" fill="#f2f2f2"/>
    <rect id="Rectangle_599-4" data-name="Rectangle 599" width="30" height="11" transform="translate(11 6946) rotate(90)" fill="#f2f2f2"/>
    <rect id="Rectangle_603-4" data-name="Rectangle 603" width="30" height="11" transform="translate(87 6946) rotate(90)" fill="#f2f2f2"/>
    <rect id="Rectangle_613-2" data-name="Rectangle 613" width="30" height="11" transform="translate(106 6946) rotate(90)" fill="#f2f2f2"/>
    <rect id="Rectangle_614-2" data-name="Rectangle 614" width="30" height="11" transform="translate(125 6946) rotate(90)" fill="#f2f2f2"/>
    <rect id="Rectangle_615-2" data-name="Rectangle 615" width="30" height="11" transform="translate(144 6946) rotate(90)" fill="#f2f2f2"/>
    <rect id="Rectangle_616" data-name="Rectangle 616" width="30" height="11" transform="translate(163 6946) rotate(90)" fill="#f2f2f2"/>
    <rect id="Rectangle_617" data-name="Rectangle 617" width="30" height="11" transform="translate(182 6946) rotate(90)" fill="#f2f2f2"/>
    <rect id="Rectangle_600-4" data-name="Rectangle 600" width="30" height="11" transform="translate(30 6946) rotate(90)" fill="#f2f2f2"/>
    <rect id="Rectangle_601-4" data-name="Rectangle 601" width="30" height="11" transform="translate(49 6946) rotate(90)" fill="#f2f2f2"/>
    <rect id="Rectangle_602-4" data-name="Rectangle 602" width="30" height="11" transform="translate(68 6946) rotate(90)" fill="#f2f2f2"/>
    <rect id="Rectangle_599-5" data-name="Rectangle 599" width="30" height="11" transform="translate(11 6984) rotate(90)" fill="#f2f2f2"/>
    <rect id="Rectangle_603-5" data-name="Rectangle 603" width="30" height="11" transform="translate(87 6984) rotate(90)" fill="#f2f2f2"/>
    <rect id="Rectangle_613-3" data-name="Rectangle 613" width="30" height="11" transform="translate(106 6984) rotate(90)" fill="#f2f2f2"/>
    <rect id="Rectangle_600-5" data-name="Rectangle 600" width="30" height="11" transform="translate(30 6984) rotate(90)" fill="#f2f2f2"/>
    <rect id="Rectangle_601-5" data-name="Rectangle 601" width="30" height="11" transform="translate(49 6984) rotate(90)" fill="#f2f2f2"/>
    <rect id="Rectangle_602-5" data-name="Rectangle 602" width="30" height="11" transform="translate(68 6984) rotate(90)" fill="#f2f2f2"/>
    <rect id="Rectangle_599-6" data-name="Rectangle 599" width="30" height="11" transform="translate(11 7022) rotate(90)" fill="#f2f2f2"/>
    <rect id="Rectangle_600-6" data-name="Rectangle 600" width="30" height="11" transform="translate(30 7022) rotate(90)" fill="#f2f2f2"/>
    <rect id="Rectangle_601-6" data-name="Rectangle 601" width="30" height="11" transform="translate(49 7022) rotate(90)" fill="#f2f2f2"/>
    <rect id="Rectangle_602-6" data-name="Rectangle 602" width="30" height="11" transform="translate(68 7022) rotate(90)" fill="#f2f2f2"/>
    <rect id="Rectangle_599-7" data-name="Rectangle 599" width="30" height="11" transform="translate(11 7060) rotate(90)" fill="#f2f2f2"/>
    <rect id="Rectangle_600-7" data-name="Rectangle 600" width="30" height="11" transform="translate(30 7060) rotate(90)" fill="#f2f2f2"/>
    <rect id="Rectangle_601-7" data-name="Rectangle 601" width="30" height="11" transform="translate(49 7060) rotate(90)" fill="#f2f2f2"/>
    <rect id="Rectangle_602-7" data-name="Rectangle 602" width="30" height="11" transform="translate(68 7060) rotate(90)" fill="#f2f2f2"/>
    <rect id="Rectangle_618" data-name="Rectangle 618" width="30" height="11" transform="translate(87 7060) rotate(90)" fill="#f2f2f2"/>
    <rect id="Rectangle_619" data-name="Rectangle 619" width="30" height="11" transform="translate(106 7060) rotate(90)" fill="#f2f2f2"/>
    <rect id="Rectangle_620" data-name="Rectangle 620" width="30" height="11" transform="translate(125 7060) rotate(90)" fill="#f2f2f2"/>
    <rect id="Rectangle_599-8" data-name="Rectangle 599" width="30" height="11" transform="translate(11 7098) rotate(90)" fill="#f2f2f2"/>
    <rect id="Rectangle_600-8" data-name="Rectangle 600" width="30" height="11" transform="translate(30 7098) rotate(90)" fill="#f2f2f2"/>
    <rect id="Rectangle_601-8" data-name="Rectangle 601" width="30" height="11" transform="translate(49 7098) rotate(90)" fill="#f2f2f2"/>
    <rect id="Rectangle_602-8" data-name="Rectangle 602" width="30" height="11" transform="translate(68 7098) rotate(90)" fill="#f2f2f2"/>
    <rect id="Rectangle_618-2" data-name="Rectangle 618" width="30" height="11" transform="translate(87 7098) rotate(90)" fill="#f2f2f2"/>
    <rect id="Rectangle_599-9" data-name="Rectangle 599" width="30" height="11" transform="translate(11 7136) rotate(90)" fill="#f2f2f2"/>
    <rect id="Rectangle_600-9" data-name="Rectangle 600" width="30" height="11" transform="translate(30 7136) rotate(90)" fill="#f2f2f2"/>
    <rect id="Rectangle_601-9" data-name="Rectangle 601" width="30" height="11" transform="translate(49 7136) rotate(90)" fill="#f2f2f2"/>
    <rect id="Rectangle_602-9" data-name="Rectangle 602" width="30" height="11" transform="translate(68 7136) rotate(90)" fill="#f2f2f2"/>
    <rect id="Rectangle_618-3" data-name="Rectangle 618" width="30" height="11" transform="translate(87 7136) rotate(90)" fill="#f2f2f2"/>
    <rect id="Rectangle_621" data-name="Rectangle 621" width="30" height="11" transform="translate(106 7136) rotate(90)" fill="#f2f2f2"/>
    <rect id="Rectangle_622" data-name="Rectangle 622" width="30" height="11" transform="translate(125 7136) rotate(90)" fill="#f2f2f2"/>
    <rect id="Rectangle_623" data-name="Rectangle 623" width="30" height="11" transform="translate(144 7136) rotate(90)" fill="#f2f2f2"/>
    <rect id="Rectangle_624" data-name="Rectangle 624" width="30" height="11" transform="translate(163 7136) rotate(90)" fill="#f2f2f2"/>
    <rect id="Rectangle_625" data-name="Rectangle 625" width="30" height="11" transform="translate(182 7136) rotate(90)" fill="#f2f2f2"/>
    <rect id="Rectangle_599-10" data-name="Rectangle 599" width="30" height="11" transform="translate(11 7174) rotate(90)" fill="#f2f2f2"/>
    <rect id="Rectangle_600-10" data-name="Rectangle 600" width="30" height="11" transform="translate(30 7174) rotate(90)" fill="#f2f2f2"/>
    <rect id="Rectangle_601-10" data-name="Rectangle 601" width="30" height="11" transform="translate(49 7174) rotate(90)" fill="#f2f2f2"/>
    <rect id="Rectangle_602-10" data-name="Rectangle 602" width="30" height="11" transform="translate(68 7174) rotate(90)" fill="#f2f2f2"/>
    <rect id="Rectangle_618-4" data-name="Rectangle 618" width="30" height="11" transform="translate(87 7174) rotate(90)" fill="#f2f2f2"/>
    <rect id="Rectangle_621-2" data-name="Rectangle 621" width="30" height="11" transform="translate(106 7174) rotate(90)" fill="#f2f2f2"/>
    <rect id="Rectangle_622-2" data-name="Rectangle 622" width="30" height="11" transform="translate(125 7174) rotate(90)" fill="#f2f2f2"/>
    <rect id="Rectangle_623-2" data-name="Rectangle 623" width="30" height="11" transform="translate(144 7174) rotate(90)" fill="#f2f2f2"/>
    <rect id="Rectangle_624-2" data-name="Rectangle 624" width="30" height="11" transform="translate(163 7174) rotate(90)" fill="#f2f2f2"/>
    <rect id="Rectangle_625-2" data-name="Rectangle 625" width="30" height="11" transform="translate(182 7174) rotate(90)" fill="#f2f2f2"/>
    <rect id="Rectangle_626" data-name="Rectangle 626" width="30" height="11" transform="translate(201 7174) rotate(90)" fill="#f2f2f2"/>
    <rect id="Rectangle_627" data-name="Rectangle 627" width="30" height="11" transform="translate(220 7174) rotate(90)" fill="#f2f2f2"/>
    <rect id="Rectangle_599-11" data-name="Rectangle 599" width="30" height="11" transform="translate(11 7212) rotate(90)" fill="#f2f2f2"/>
    <rect id="Rectangle_600-11" data-name="Rectangle 600" width="30" height="11" transform="translate(30 7212) rotate(90)" fill="#f2f2f2"/>
    <rect id="Rectangle_601-11" data-name="Rectangle 601" width="30" height="11" transform="translate(49 7212) rotate(90)" fill="#f2f2f2"/>
    <rect id="Rectangle_602-11" data-name="Rectangle 602" width="30" height="11" transform="translate(68 7212) rotate(90)" fill="#f2f2f2"/>
    <rect id="Rectangle_618-5" data-name="Rectangle 618" width="30" height="11" transform="translate(87 7212) rotate(90)" fill="#f2f2f2"/>
    <rect id="Rectangle_621-3" data-name="Rectangle 621" width="30" height="11" transform="translate(106 7212) rotate(90)" fill="#f2f2f2"/>
    <rect id="Rectangle_622-3" data-name="Rectangle 622" width="30" height="11" transform="translate(125 7212) rotate(90)" fill="#f2f2f2"/>
    <rect id="Rectangle_623-3" data-name="Rectangle 623" width="30" height="11" transform="translate(144 7212) rotate(90)" fill="#f2f2f2"/>
    <rect id="Rectangle_624-3" data-name="Rectangle 624" width="30" height="11" transform="translate(163 7212) rotate(90)" fill="#f2f2f2"/>
    <rect id="Rectangle_599-12" data-name="Rectangle 599" width="30" height="11" transform="translate(11 7250) rotate(90)" fill="#f2f2f2"/>
    <rect id="Rectangle_600-12" data-name="Rectangle 600" width="30" height="11" transform="translate(30 7250) rotate(90)" fill="#f2f2f2"/>
    <rect id="Rectangle_601-12" data-name="Rectangle 601" width="30" height="11" transform="translate(49 7250) rotate(90)" fill="#f2f2f2"/>
    <rect id="Rectangle_602-12" data-name="Rectangle 602" width="30" height="11" transform="translate(68 7250) rotate(90)" fill="#f2f2f2"/>
    <rect id="Rectangle_618-6" data-name="Rectangle 618" width="30" height="11" transform="translate(87 7250) rotate(90)" fill="#f2f2f2"/>
    <rect id="Rectangle_599-13" data-name="Rectangle 599" width="30" height="11" transform="translate(11 7288) rotate(90)" fill="#f2f2f2"/>
    <rect id="Rectangle_600-13" data-name="Rectangle 600" width="30" height="11" transform="translate(30 7288) rotate(90)" fill="#f2f2f2"/>
    <rect id="Rectangle_601-13" data-name="Rectangle 601" width="30" height="11" transform="translate(49 7288) rotate(90)" fill="#f2f2f2"/>
    <rect id="Rectangle_602-13" data-name="Rectangle 602" width="30" height="11" transform="translate(68 7288) rotate(90)" fill="#f2f2f2"/>
    <rect id="Rectangle_618-7" data-name="Rectangle 618" width="30" height="11" transform="translate(87 7288) rotate(90)" fill="#f2f2f2"/>
    <rect id="Rectangle_632" data-name="Rectangle 632" width="30" height="11" transform="translate(144 7288) rotate(90)" fill="#f2f2f2"/>
    <rect id="Rectangle_628" data-name="Rectangle 628" width="30" height="11" transform="translate(106 7288) rotate(90)" fill="#f2f2f2"/>
    <rect id="Rectangle_631" data-name="Rectangle 631" width="30" height="11" transform="translate(163 7288) rotate(90)" fill="#f2f2f2"/>
    <rect id="Rectangle_629" data-name="Rectangle 629" width="30" height="11" transform="translate(125 7288) rotate(90)" fill="#f2f2f2"/>
    <rect id="Rectangle_630" data-name="Rectangle 630" width="30" height="11" transform="translate(182 7288) rotate(90)" fill="#f2f2f2"/>
    <rect id="Rectangle_633" data-name="Rectangle 633" width="30" height="11" transform="translate(201 7288) rotate(90)" fill="#f2f2f2"/>
    <rect id="Rectangle_599-14" data-name="Rectangle 599" width="30" height="11" transform="translate(11 7326) rotate(90)" fill="#f2f2f2"/>
    <rect id="Rectangle_600-14" data-name="Rectangle 600" width="30" height="11" transform="translate(30 7326) rotate(90)" fill="#f2f2f2"/>
    <rect id="Rectangle_601-14" data-name="Rectangle 601" width="30" height="11" transform="translate(49 7326) rotate(90)" fill="#f2f2f2"/>
    <rect id="Rectangle_602-14" data-name="Rectangle 602" width="30" height="11" transform="translate(68 7326) rotate(90)" fill="#f2f2f2"/>
    <rect id="Rectangle_618-8" data-name="Rectangle 618" width="30" height="11" transform="translate(87 7326) rotate(90)" fill="#f2f2f2"/>
    <rect id="Rectangle_632-2" data-name="Rectangle 632" width="30" height="11" transform="translate(144 7326) rotate(90)" fill="#f2f2f2"/>
    <rect id="Rectangle_628-2" data-name="Rectangle 628" width="30" height="11" transform="translate(106 7326) rotate(90)" fill="#f2f2f2"/>
    <rect id="Rectangle_629-2" data-name="Rectangle 629" width="30" height="11" transform="translate(125 7326) rotate(90)" fill="#f2f2f2"/>
    <rect id="Rectangle_599-15" data-name="Rectangle 599" width="30" height="11" transform="translate(11 7364) rotate(90)" fill="#f2f2f2"/>
    <rect id="Rectangle_600-15" data-name="Rectangle 600" width="30" height="11" transform="translate(30 7364) rotate(90)" fill="#f2f2f2"/>
    <rect id="Rectangle_601-15" data-name="Rectangle 601" width="30" height="11" transform="translate(49 7364) rotate(90)" fill="#f2f2f2"/>
    <rect id="Rectangle_602-15" data-name="Rectangle 602" width="30" height="11" transform="translate(68 7364) rotate(90)" fill="#f2f2f2"/>
    <rect id="Rectangle_618-9" data-name="Rectangle 618" width="30" height="11" transform="translate(87 7364) rotate(90)" fill="#f2f2f2"/>
    <rect id="Rectangle_632-3" data-name="Rectangle 632" width="30" height="11" transform="translate(144 7364) rotate(90)" fill="#f2f2f2"/>
    <rect id="Rectangle_634" data-name="Rectangle 634" width="30" height="11" transform="translate(163 7364) rotate(90)" fill="#f2f2f2"/>
    <rect id="Rectangle_635" data-name="Rectangle 635" width="30" height="11" transform="translate(182 7364) rotate(90)" fill="#f2f2f2"/>
    <rect id="Rectangle_628-3" data-name="Rectangle 628" width="30" height="11" transform="translate(106 7364) rotate(90)" fill="#f2f2f2"/>
    <rect id="Rectangle_629-3" data-name="Rectangle 629" width="30" height="11" transform="translate(125 7364) rotate(90)" fill="#f2f2f2"/>
    <rect id="Rectangle_599-16" data-name="Rectangle 599" width="30" height="11" transform="translate(11 7402) rotate(90)" fill="#f2f2f2"/>
    <rect id="Rectangle_600-16" data-name="Rectangle 600" width="30" height="11" transform="translate(30 7402) rotate(90)" fill="#f2f2f2"/>
    <rect id="Rectangle_601-16" data-name="Rectangle 601" width="30" height="11" transform="translate(49 7402) rotate(90)" fill="#f2f2f2"/>
    <rect id="Rectangle_602-16" data-name="Rectangle 602" width="30" height="11" transform="translate(68 7402) rotate(90)" fill="#f2f2f2"/>
    <rect id="Rectangle_618-10" data-name="Rectangle 618" width="30" height="11" transform="translate(87 7402) rotate(90)" fill="#f2f2f2"/>
    <rect id="Rectangle_632-4" data-name="Rectangle 632" width="30" height="11" transform="translate(144 7402) rotate(90)" fill="#f2f2f2"/>
    <rect id="Rectangle_634-2" data-name="Rectangle 634" width="30" height="11" transform="translate(163 7402) rotate(90)" fill="#f2f2f2"/>
    <rect id="Rectangle_635-2" data-name="Rectangle 635" width="30" height="11" transform="translate(182 7402) rotate(90)" fill="#f2f2f2"/>
    <rect id="Rectangle_636" data-name="Rectangle 636" width="30" height="11" transform="translate(201 7402) rotate(90)" fill="#f2f2f2"/>
    <rect id="Rectangle_628-4" data-name="Rectangle 628" width="30" height="11" transform="translate(106 7402) rotate(90)" fill="#f2f2f2"/>
    <rect id="Rectangle_629-4" data-name="Rectangle 629" width="30" height="11" transform="translate(125 7402) rotate(90)" fill="#f2f2f2"/>
    <rect id="Rectangle_599-17" data-name="Rectangle 599" width="30" height="11" transform="translate(11 7440) rotate(90)" fill="#f2f2f2"/>
    <rect id="Rectangle_600-17" data-name="Rectangle 600" width="30" height="11" transform="translate(30 7440) rotate(90)" fill="#f2f2f2"/>
    <rect id="Rectangle_601-17" data-name="Rectangle 601" width="30" height="11" transform="translate(49 7440) rotate(90)" fill="#f2f2f2"/>
    <rect id="Rectangle_602-17" data-name="Rectangle 602" width="30" height="11" transform="translate(68 7440) rotate(90)" fill="#f2f2f2"/>
    <rect id="Rectangle_618-11" data-name="Rectangle 618" width="30" height="11" transform="translate(87 7440) rotate(90)" fill="#f2f2f2"/>
    <rect id="Rectangle_628-5" data-name="Rectangle 628" width="30" height="11" transform="translate(106 7440) rotate(90)" fill="#f2f2f2"/>
    <rect id="Rectangle_629-5" data-name="Rectangle 629" width="30" height="11" transform="translate(125 7440) rotate(90)" fill="#f2f2f2"/>
    <rect id="Rectangle_599-18" data-name="Rectangle 599" width="30" height="11" transform="translate(11 7478) rotate(90)" fill="#f2f2f2"/>
    <rect id="Rectangle_600-18" data-name="Rectangle 600" width="30" height="11" transform="translate(30 7478) rotate(90)" fill="#f2f2f2"/>
    <rect id="Rectangle_601-18" data-name="Rectangle 601" width="30" height="11" transform="translate(49 7478) rotate(90)" fill="#f2f2f2"/>
    <rect id="Rectangle_602-18" data-name="Rectangle 602" width="30" height="11" transform="translate(68 7478) rotate(90)" fill="#f2f2f2"/>
    <rect id="Rectangle_618-12" data-name="Rectangle 618" width="30" height="11" transform="translate(87 7478) rotate(90)" fill="#f2f2f2"/>
    <rect id="Rectangle_628-6" data-name="Rectangle 628" width="30" height="11" transform="translate(106 7478) rotate(90)" fill="#f2f2f2"/>
    <rect id="Rectangle_629-6" data-name="Rectangle 629" width="30" height="11" transform="translate(125 7478) rotate(90)" fill="#f2f2f2"/>
    <rect id="Rectangle_637" data-name="Rectangle 637" width="30" height="11" transform="translate(144 7478) rotate(90)" fill="#f2f2f2"/>
    <rect id="Rectangle_638" data-name="Rectangle 638" width="30" height="11" transform="translate(163 7478) rotate(90)" fill="#f2f2f2"/>
    <rect id="Rectangle_639" data-name="Rectangle 639" width="30" height="11" transform="translate(182 7478) rotate(90)" fill="#f2f2f2"/>
    <rect id="Rectangle_599-19" data-name="Rectangle 599" width="30" height="11" transform="translate(11 7516) rotate(90)" fill="#f2f2f2"/>
    <rect id="Rectangle_600-19" data-name="Rectangle 600" width="30" height="11" transform="translate(30 7516) rotate(90)" fill="#f2f2f2"/>
    <rect id="Rectangle_601-19" data-name="Rectangle 601" width="30" height="11" transform="translate(49 7516) rotate(90)" fill="#f2f2f2"/>
    <rect id="Rectangle_602-19" data-name="Rectangle 602" width="30" height="11" transform="translate(68 7516) rotate(90)" fill="#f2f2f2"/>
    <rect id="Rectangle_599-20" data-name="Rectangle 599" width="30" height="11" transform="translate(11 7554) rotate(90)" fill="#f2f2f2"/>
    <rect id="Rectangle_600-20" data-name="Rectangle 600" width="30" height="11" transform="translate(30 7554) rotate(90)" fill="#f2f2f2"/>
    <rect id="Rectangle_601-20" data-name="Rectangle 601" width="30" height="11" transform="translate(49 7554) rotate(90)" fill="#f2f2f2"/>
    <rect id="Rectangle_602-20" data-name="Rectangle 602" width="30" height="11" transform="translate(68 7554) rotate(90)" fill="#f2f2f2"/>
    <rect id="Rectangle_640" data-name="Rectangle 640" width="30" height="11" transform="translate(87 7554) rotate(90)" fill="#f2f2f2"/>
    <rect id="Rectangle_641" data-name="Rectangle 641" width="30" height="11" transform="translate(106 7554) rotate(90)" fill="#f2f2f2"/>
    <rect id="Rectangle_642" data-name="Rectangle 642" width="30" height="11" transform="translate(125 7554) rotate(90)" fill="#f2f2f2"/>
    <rect id="Rectangle_599-21" data-name="Rectangle 599" width="30" height="11" transform="translate(11 7592) rotate(90)" fill="#f2f2f2"/>
    <rect id="Rectangle_600-21" data-name="Rectangle 600" width="30" height="11" transform="translate(30 7592) rotate(90)" fill="#f2f2f2"/>
    <rect id="Rectangle_601-21" data-name="Rectangle 601" width="30" height="11" transform="translate(49 7592) rotate(90)" fill="#f2f2f2"/>
    <rect id="Rectangle_602-21" data-name="Rectangle 602" width="30" height="11" transform="translate(68 7592) rotate(90)" fill="#f2f2f2"/>
    <rect id="Rectangle_640-2" data-name="Rectangle 640" width="30" height="11" transform="translate(87 7592) rotate(90)" fill="#f2f2f2"/>
    <rect id="Rectangle_641-2" data-name="Rectangle 641" width="30" height="11" transform="translate(106 7592) rotate(90)" fill="#f2f2f2"/>
    <rect id="Rectangle_642-2" data-name="Rectangle 642" width="30" height="11" transform="translate(125 7592) rotate(90)" fill="#f2f2f2"/>
    <rect id="Rectangle_643" data-name="Rectangle 643" width="30" height="11" transform="translate(144 7592) rotate(90)" fill="#f2f2f2"/>
    <rect id="Rectangle_644" data-name="Rectangle 644" width="30" height="11" transform="translate(163 7592) rotate(90)" fill="#f2f2f2"/>
    <rect id="Rectangle_645" data-name="Rectangle 645" width="30" height="11" transform="translate(182 7592) rotate(90)" fill="#f2f2f2"/>
    <rect id="Rectangle_646" data-name="Rectangle 646" width="30" height="11" transform="translate(201 7592) rotate(90)" fill="#f2f2f2"/>
  </g>
</svg>
