<svg xmlns="http://www.w3.org/2000/svg" width="220" height="904" viewBox="0 0 220 904">
  <g id="Groupe_53" data-name="Groupe 53" transform="translate(0 -1069)">
    <rect id="Rectangle_599" data-name="Rectangle 599" width="30" height="11" transform="translate(11 1069) rotate(90)" fill="#f2f2f2"/>
    <rect id="Rectangle_603" data-name="Rectangle 603" width="30" height="11" transform="translate(87 1069) rotate(90)" fill="#f2f2f2"/>
    <rect id="Rectangle_607" data-name="Rectangle 607" width="30" height="11" transform="translate(163 1069) rotate(90)" fill="#df4748"/>
    <rect id="Rectangle_600" data-name="Rectangle 600" width="30" height="11" transform="translate(30 1069) rotate(90)" fill="#f2f2f2"/>
    <rect id="Rectangle_604" data-name="Rectangle 604" width="30" height="11" transform="translate(106 1069) rotate(90)" fill="#f2f2f2"/>
    <rect id="Rectangle_608" data-name="Rectangle 608" width="30" height="11" transform="translate(182 1069) rotate(90)" fill="#df4748"/>
    <rect id="Rectangle_601" data-name="Rectangle 601" width="30" height="11" transform="translate(49 1069) rotate(90)" fill="#f2f2f2"/>
    <rect id="Rectangle_605" data-name="Rectangle 605" width="30" height="11" transform="translate(125 1069) rotate(90)" fill="#f2f2f2"/>
    <rect id="Rectangle_609" data-name="Rectangle 609" width="30" height="11" transform="translate(201 1069) rotate(90)" fill="#df4748"/>
    <rect id="Rectangle_602" data-name="Rectangle 602" width="30" height="11" transform="translate(68 1069) rotate(90)" fill="#f2f2f2"/>
    <rect id="Rectangle_606" data-name="Rectangle 606" width="30" height="11" transform="translate(144 1069) rotate(90)" fill="#f2f2f2"/>
    <rect id="Rectangle_599-2" data-name="Rectangle 599" width="30" height="11" transform="translate(11 1107) rotate(90)" fill="#f2f2f2"/>
    <rect id="Rectangle_603-2" data-name="Rectangle 603" width="30" height="11" transform="translate(87 1107) rotate(90)" fill="#df4748"/>
    <rect id="Rectangle_600-2" data-name="Rectangle 600" width="30" height="11" transform="translate(30 1107) rotate(90)" fill="#f2f2f2"/>
    <rect id="Rectangle_604-2" data-name="Rectangle 604" width="30" height="11" transform="translate(106 1107) rotate(90)" fill="#df4748"/>
    <rect id="Rectangle_601-2" data-name="Rectangle 601" width="30" height="11" transform="translate(49 1107) rotate(90)" fill="#f2f2f2"/>
    <rect id="Rectangle_605-2" data-name="Rectangle 605" width="30" height="11" transform="translate(125 1107) rotate(90)" fill="#f2f2f2"/>
    <rect id="Rectangle_602-2" data-name="Rectangle 602" width="30" height="11" transform="translate(68 1107) rotate(90)" fill="#f2f2f2"/>
    <rect id="Rectangle_606-2" data-name="Rectangle 606" width="30" height="11" transform="translate(144 1107) rotate(90)" fill="#f2f2f2"/>
    <rect id="Rectangle_599-3" data-name="Rectangle 599" width="30" height="11" transform="translate(11 1145) rotate(90)" fill="#df4748"/>
    <rect id="Rectangle_603-3" data-name="Rectangle 603" width="30" height="11" transform="translate(87 1145) rotate(90)" fill="#df4748"/>
    <rect id="Rectangle_600-3" data-name="Rectangle 600" width="30" height="11" transform="translate(30 1145) rotate(90)" fill="#df4748"/>
    <rect id="Rectangle_604-3" data-name="Rectangle 604" width="30" height="11" transform="translate(106 1145) rotate(90)" fill="#df4748"/>
    <rect id="Rectangle_601-3" data-name="Rectangle 601" width="30" height="11" transform="translate(49 1145) rotate(90)" fill="#df4748"/>
    <rect id="Rectangle_605-3" data-name="Rectangle 605" width="30" height="11" transform="translate(125 1145) rotate(90)" fill="#f2f2f2"/>
    <rect id="Rectangle_602-3" data-name="Rectangle 602" width="30" height="11" transform="translate(68 1145) rotate(90)" fill="#df4748"/>
    <rect id="Rectangle_606-3" data-name="Rectangle 606" width="30" height="11" transform="translate(144 1145) rotate(90)" fill="#f2f2f2"/>
    <rect id="Rectangle_610" data-name="Rectangle 610" width="30" height="11" transform="translate(163 1145) rotate(90)" fill="#f2f2f2"/>
    <rect id="Rectangle_611" data-name="Rectangle 611" width="30" height="11" transform="translate(182 1145) rotate(90)" fill="#f2f2f2"/>
    <rect id="Rectangle_612" data-name="Rectangle 612" width="30" height="11" transform="translate(201 1145) rotate(90)" fill="#f2f2f2"/>
    <rect id="Rectangle_599-4" data-name="Rectangle 599" width="30" height="11" transform="translate(11 1183) rotate(90)" fill="#df4748"/>
    <rect id="Rectangle_603-4" data-name="Rectangle 603" width="30" height="11" transform="translate(87 1183) rotate(90)" fill="#f2f2f2"/>
    <rect id="Rectangle_600-4" data-name="Rectangle 600" width="30" height="11" transform="translate(30 1183) rotate(90)" fill="#df4748"/>
    <rect id="Rectangle_604-4" data-name="Rectangle 604" width="30" height="11" transform="translate(106 1183) rotate(90)" fill="#f2f2f2"/>
    <rect id="Rectangle_601-4" data-name="Rectangle 601" width="30" height="11" transform="translate(49 1183) rotate(90)" fill="#df4748"/>
    <rect id="Rectangle_605-4" data-name="Rectangle 605" width="30" height="11" transform="translate(125 1183) rotate(90)" fill="#f2f2f2"/>
    <rect id="Rectangle_602-4" data-name="Rectangle 602" width="30" height="11" transform="translate(68 1183) rotate(90)" fill="#df4748"/>
    <rect id="Rectangle_599-5" data-name="Rectangle 599" width="30" height="11" transform="translate(11 1221) rotate(90)" fill="#f2f2f2"/>
    <rect id="Rectangle_603-5" data-name="Rectangle 603" width="30" height="11" transform="translate(87 1221) rotate(90)" fill="#f2f2f2"/>
    <rect id="Rectangle_600-5" data-name="Rectangle 600" width="30" height="11" transform="translate(30 1221) rotate(90)" fill="#f2f2f2"/>
    <rect id="Rectangle_601-5" data-name="Rectangle 601" width="30" height="11" transform="translate(49 1221) rotate(90)" fill="#f2f2f2"/>
    <rect id="Rectangle_602-5" data-name="Rectangle 602" width="30" height="11" transform="translate(68 1221) rotate(90)" fill="#f2f2f2"/>
    <rect id="Rectangle_599-6" data-name="Rectangle 599" width="30" height="11" transform="translate(11 1259) rotate(90)" fill="#f2f2f2"/>
    <rect id="Rectangle_603-6" data-name="Rectangle 603" width="30" height="11" transform="translate(87 1259) rotate(90)" fill="#f2f2f2"/>
    <rect id="Rectangle_613" data-name="Rectangle 613" width="30" height="11" transform="translate(106 1259) rotate(90)" fill="#f2f2f2"/>
    <rect id="Rectangle_614" data-name="Rectangle 614" width="30" height="11" transform="translate(125 1259) rotate(90)" fill="#f2f2f2"/>
    <rect id="Rectangle_615" data-name="Rectangle 615" width="30" height="11" transform="translate(144 1259) rotate(90)" fill="#f2f2f2"/>
    <rect id="Rectangle_600-6" data-name="Rectangle 600" width="30" height="11" transform="translate(30 1259) rotate(90)" fill="#f2f2f2"/>
    <rect id="Rectangle_601-6" data-name="Rectangle 601" width="30" height="11" transform="translate(49 1259) rotate(90)" fill="#f2f2f2"/>
    <rect id="Rectangle_602-6" data-name="Rectangle 602" width="30" height="11" transform="translate(68 1259) rotate(90)" fill="#f2f2f2"/>
    <rect id="Rectangle_599-7" data-name="Rectangle 599" width="30" height="11" transform="translate(11 1297) rotate(90)" fill="#f2f2f2"/>
    <rect id="Rectangle_603-7" data-name="Rectangle 603" width="30" height="11" transform="translate(87 1297) rotate(90)" fill="#df4748"/>
    <rect id="Rectangle_613-2" data-name="Rectangle 613" width="30" height="11" transform="translate(106 1297) rotate(90)" fill="#df4748"/>
    <rect id="Rectangle_614-2" data-name="Rectangle 614" width="30" height="11" transform="translate(125 1297) rotate(90)" fill="#df4748"/>
    <rect id="Rectangle_615-2" data-name="Rectangle 615" width="30" height="11" transform="translate(144 1297) rotate(90)" fill="#f2f2f2"/>
    <rect id="Rectangle_616" data-name="Rectangle 616" width="30" height="11" transform="translate(163 1297) rotate(90)" fill="#f2f2f2"/>
    <rect id="Rectangle_617" data-name="Rectangle 617" width="30" height="11" transform="translate(182 1297) rotate(90)" fill="#f2f2f2"/>
    <rect id="Rectangle_600-7" data-name="Rectangle 600" width="30" height="11" transform="translate(30 1297) rotate(90)" fill="#f2f2f2"/>
    <rect id="Rectangle_601-7" data-name="Rectangle 601" width="30" height="11" transform="translate(49 1297) rotate(90)" fill="#f2f2f2"/>
    <rect id="Rectangle_602-7" data-name="Rectangle 602" width="30" height="11" transform="translate(68 1297) rotate(90)" fill="#f2f2f2"/>
    <rect id="Rectangle_599-8" data-name="Rectangle 599" width="30" height="11" transform="translate(11 1335) rotate(90)" fill="#f2f2f2"/>
    <rect id="Rectangle_603-8" data-name="Rectangle 603" width="30" height="11" transform="translate(87 1335) rotate(90)" fill="#df4748"/>
    <rect id="Rectangle_613-3" data-name="Rectangle 613" width="30" height="11" transform="translate(106 1335) rotate(90)" fill="#df4748"/>
    <rect id="Rectangle_600-8" data-name="Rectangle 600" width="30" height="11" transform="translate(30 1335) rotate(90)" fill="#f2f2f2"/>
    <rect id="Rectangle_601-8" data-name="Rectangle 601" width="30" height="11" transform="translate(49 1335) rotate(90)" fill="#f2f2f2"/>
    <rect id="Rectangle_602-8" data-name="Rectangle 602" width="30" height="11" transform="translate(68 1335) rotate(90)" fill="#f2f2f2"/>
    <rect id="Rectangle_599-9" data-name="Rectangle 599" width="30" height="11" transform="translate(11 1373) rotate(90)" fill="#f2f2f2"/>
    <rect id="Rectangle_600-9" data-name="Rectangle 600" width="30" height="11" transform="translate(30 1373) rotate(90)" fill="#f2f2f2"/>
    <rect id="Rectangle_601-9" data-name="Rectangle 601" width="30" height="11" transform="translate(49 1373) rotate(90)" fill="#f2f2f2"/>
    <rect id="Rectangle_602-9" data-name="Rectangle 602" width="30" height="11" transform="translate(68 1373) rotate(90)" fill="#df4748"/>
    <rect id="Rectangle_599-10" data-name="Rectangle 599" width="30" height="11" transform="translate(11 1411) rotate(90)" fill="#f2f2f2"/>
    <rect id="Rectangle_600-10" data-name="Rectangle 600" width="30" height="11" transform="translate(30 1411) rotate(90)" fill="#f2f2f2"/>
    <rect id="Rectangle_601-10" data-name="Rectangle 601" width="30" height="11" transform="translate(49 1411) rotate(90)" fill="#f2f2f2"/>
    <rect id="Rectangle_602-10" data-name="Rectangle 602" width="30" height="11" transform="translate(68 1411) rotate(90)" fill="#df4748"/>
    <rect id="Rectangle_618" data-name="Rectangle 618" width="30" height="11" transform="translate(87 1411) rotate(90)" fill="#df4748"/>
    <rect id="Rectangle_619" data-name="Rectangle 619" width="30" height="11" transform="translate(106 1411) rotate(90)" fill="#f2f2f2"/>
    <rect id="Rectangle_620" data-name="Rectangle 620" width="30" height="11" transform="translate(125 1411) rotate(90)" fill="#f2f2f2"/>
    <rect id="Rectangle_599-11" data-name="Rectangle 599" width="30" height="11" transform="translate(11 1449) rotate(90)" fill="#f2f2f2"/>
    <rect id="Rectangle_600-11" data-name="Rectangle 600" width="30" height="11" transform="translate(30 1449) rotate(90)" fill="#f2f2f2"/>
    <rect id="Rectangle_601-11" data-name="Rectangle 601" width="30" height="11" transform="translate(49 1449) rotate(90)" fill="#f2f2f2"/>
    <rect id="Rectangle_602-11" data-name="Rectangle 602" width="30" height="11" transform="translate(68 1449) rotate(90)" fill="#f2f2f2"/>
    <rect id="Rectangle_618-2" data-name="Rectangle 618" width="30" height="11" transform="translate(87 1449) rotate(90)" fill="#f2f2f2"/>
    <rect id="Rectangle_599-12" data-name="Rectangle 599" width="30" height="11" transform="translate(11 1487) rotate(90)" fill="#df4748"/>
    <rect id="Rectangle_600-12" data-name="Rectangle 600" width="30" height="11" transform="translate(30 1487) rotate(90)" fill="#df4748"/>
    <rect id="Rectangle_601-12" data-name="Rectangle 601" width="30" height="11" transform="translate(49 1487) rotate(90)" fill="#f2f2f2"/>
    <rect id="Rectangle_602-12" data-name="Rectangle 602" width="30" height="11" transform="translate(68 1487) rotate(90)" fill="#f2f2f2"/>
    <rect id="Rectangle_618-3" data-name="Rectangle 618" width="30" height="11" transform="translate(87 1487) rotate(90)" fill="#f2f2f2"/>
    <rect id="Rectangle_621" data-name="Rectangle 621" width="30" height="11" transform="translate(106 1487) rotate(90)" fill="#f2f2f2"/>
    <rect id="Rectangle_622" data-name="Rectangle 622" width="30" height="11" transform="translate(125 1487) rotate(90)" fill="#f2f2f2"/>
    <rect id="Rectangle_623" data-name="Rectangle 623" width="30" height="11" transform="translate(144 1487) rotate(90)" fill="#f2f2f2"/>
    <rect id="Rectangle_624" data-name="Rectangle 624" width="30" height="11" transform="translate(163 1487) rotate(90)" fill="#f2f2f2"/>
    <rect id="Rectangle_625" data-name="Rectangle 625" width="30" height="11" transform="translate(182 1487) rotate(90)" fill="#f2f2f2"/>
    <rect id="Rectangle_599-13" data-name="Rectangle 599" width="30" height="11" transform="translate(11 1525) rotate(90)" fill="#df4748"/>
    <rect id="Rectangle_600-13" data-name="Rectangle 600" width="30" height="11" transform="translate(30 1525) rotate(90)" fill="#df4748"/>
    <rect id="Rectangle_601-13" data-name="Rectangle 601" width="30" height="11" transform="translate(49 1525) rotate(90)" fill="#f2f2f2"/>
    <rect id="Rectangle_602-13" data-name="Rectangle 602" width="30" height="11" transform="translate(68 1525) rotate(90)" fill="#f2f2f2"/>
    <rect id="Rectangle_618-4" data-name="Rectangle 618" width="30" height="11" transform="translate(87 1525) rotate(90)" fill="#f2f2f2"/>
    <rect id="Rectangle_621-2" data-name="Rectangle 621" width="30" height="11" transform="translate(106 1525) rotate(90)" fill="#f2f2f2"/>
    <rect id="Rectangle_622-2" data-name="Rectangle 622" width="30" height="11" transform="translate(125 1525) rotate(90)" fill="#f2f2f2"/>
    <rect id="Rectangle_623-2" data-name="Rectangle 623" width="30" height="11" transform="translate(144 1525) rotate(90)" fill="#f2f2f2"/>
    <rect id="Rectangle_624-2" data-name="Rectangle 624" width="30" height="11" transform="translate(163 1525) rotate(90)" fill="#f2f2f2"/>
    <rect id="Rectangle_625-2" data-name="Rectangle 625" width="30" height="11" transform="translate(182 1525) rotate(90)" fill="#f2f2f2"/>
    <rect id="Rectangle_626" data-name="Rectangle 626" width="30" height="11" transform="translate(201 1525) rotate(90)" fill="#f2f2f2"/>
    <rect id="Rectangle_627" data-name="Rectangle 627" width="30" height="11" transform="translate(220 1525) rotate(90)" fill="#f2f2f2"/>
    <rect id="Rectangle_599-14" data-name="Rectangle 599" width="30" height="11" transform="translate(11 1563) rotate(90)" fill="#f2f2f2"/>
    <rect id="Rectangle_600-14" data-name="Rectangle 600" width="30" height="11" transform="translate(30 1563) rotate(90)" fill="#f2f2f2"/>
    <rect id="Rectangle_601-14" data-name="Rectangle 601" width="30" height="11" transform="translate(49 1563) rotate(90)" fill="#f2f2f2"/>
    <rect id="Rectangle_602-14" data-name="Rectangle 602" width="30" height="11" transform="translate(68 1563) rotate(90)" fill="#f2f2f2"/>
    <rect id="Rectangle_618-5" data-name="Rectangle 618" width="30" height="11" transform="translate(87 1563) rotate(90)" fill="#f2f2f2"/>
    <rect id="Rectangle_621-3" data-name="Rectangle 621" width="30" height="11" transform="translate(106 1563) rotate(90)" fill="#f2f2f2"/>
    <rect id="Rectangle_622-3" data-name="Rectangle 622" width="30" height="11" transform="translate(125 1563) rotate(90)" fill="#f2f2f2"/>
    <rect id="Rectangle_623-3" data-name="Rectangle 623" width="30" height="11" transform="translate(144 1563) rotate(90)" fill="#f2f2f2"/>
    <rect id="Rectangle_624-3" data-name="Rectangle 624" width="30" height="11" transform="translate(163 1563) rotate(90)" fill="#f2f2f2"/>
    <rect id="Rectangle_599-15" data-name="Rectangle 599" width="30" height="11" transform="translate(11 1601) rotate(90)" fill="#f2f2f2"/>
    <rect id="Rectangle_600-15" data-name="Rectangle 600" width="30" height="11" transform="translate(30 1601) rotate(90)" fill="#f2f2f2"/>
    <rect id="Rectangle_601-15" data-name="Rectangle 601" width="30" height="11" transform="translate(49 1601) rotate(90)" fill="#f2f2f2"/>
    <rect id="Rectangle_602-15" data-name="Rectangle 602" width="30" height="11" transform="translate(68 1601) rotate(90)" fill="#f2f2f2"/>
    <rect id="Rectangle_618-6" data-name="Rectangle 618" width="30" height="11" transform="translate(87 1601) rotate(90)" fill="#df4748"/>
    <rect id="Rectangle_599-16" data-name="Rectangle 599" width="30" height="11" transform="translate(11 1639) rotate(90)" fill="#f2f2f2"/>
    <rect id="Rectangle_600-16" data-name="Rectangle 600" width="30" height="11" transform="translate(30 1639) rotate(90)" fill="#f2f2f2"/>
    <rect id="Rectangle_601-16" data-name="Rectangle 601" width="30" height="11" transform="translate(49 1639) rotate(90)" fill="#f2f2f2"/>
    <rect id="Rectangle_602-16" data-name="Rectangle 602" width="30" height="11" transform="translate(68 1639) rotate(90)" fill="#f2f2f2"/>
    <rect id="Rectangle_618-7" data-name="Rectangle 618" width="30" height="11" transform="translate(87 1639) rotate(90)" fill="#df4748"/>
    <rect id="Rectangle_632" data-name="Rectangle 632" width="30" height="11" transform="translate(144 1639) rotate(90)" fill="#f2f2f2"/>
    <rect id="Rectangle_628" data-name="Rectangle 628" width="30" height="11" transform="translate(106 1639) rotate(90)" fill="#df4748"/>
    <rect id="Rectangle_631" data-name="Rectangle 631" width="30" height="11" transform="translate(163 1639) rotate(90)" fill="#df4748"/>
    <rect id="Rectangle_629" data-name="Rectangle 629" width="30" height="11" transform="translate(125 1639) rotate(90)" fill="#f2f2f2"/>
    <rect id="Rectangle_630" data-name="Rectangle 630" width="30" height="11" transform="translate(182 1639) rotate(90)" fill="#f2f2f2"/>
    <rect id="Rectangle_633" data-name="Rectangle 633" width="30" height="11" transform="translate(201 1639) rotate(90)" fill="#f2f2f2"/>
    <rect id="Rectangle_599-17" data-name="Rectangle 599" width="30" height="11" transform="translate(11 1677) rotate(90)" fill="#f2f2f2"/>
    <rect id="Rectangle_600-17" data-name="Rectangle 600" width="30" height="11" transform="translate(30 1677) rotate(90)" fill="#f2f2f2"/>
    <rect id="Rectangle_601-17" data-name="Rectangle 601" width="30" height="11" transform="translate(49 1677) rotate(90)" fill="#f2f2f2"/>
    <rect id="Rectangle_602-17" data-name="Rectangle 602" width="30" height="11" transform="translate(68 1677) rotate(90)" fill="#f2f2f2"/>
    <rect id="Rectangle_618-8" data-name="Rectangle 618" width="30" height="11" transform="translate(87 1677) rotate(90)" fill="#df4748"/>
    <rect id="Rectangle_632-2" data-name="Rectangle 632" width="30" height="11" transform="translate(144 1677) rotate(90)" fill="#f2f2f2"/>
    <rect id="Rectangle_628-2" data-name="Rectangle 628" width="30" height="11" transform="translate(106 1677) rotate(90)" fill="#df4748"/>
    <rect id="Rectangle_629-2" data-name="Rectangle 629" width="30" height="11" transform="translate(125 1677) rotate(90)" fill="#f2f2f2"/>
    <rect id="Rectangle_599-18" data-name="Rectangle 599" width="30" height="11" transform="translate(11 1715) rotate(90)" fill="#f2f2f2"/>
    <rect id="Rectangle_600-18" data-name="Rectangle 600" width="30" height="11" transform="translate(30 1715) rotate(90)" fill="#f2f2f2"/>
    <rect id="Rectangle_601-18" data-name="Rectangle 601" width="30" height="11" transform="translate(49 1715) rotate(90)" fill="#f2f2f2"/>
    <rect id="Rectangle_602-18" data-name="Rectangle 602" width="30" height="11" transform="translate(68 1715) rotate(90)" fill="#f2f2f2"/>
    <rect id="Rectangle_618-9" data-name="Rectangle 618" width="30" height="11" transform="translate(87 1715) rotate(90)" fill="#f2f2f2"/>
    <rect id="Rectangle_632-3" data-name="Rectangle 632" width="30" height="11" transform="translate(144 1715) rotate(90)" fill="#f2f2f2"/>
    <rect id="Rectangle_634" data-name="Rectangle 634" width="30" height="11" transform="translate(163 1715) rotate(90)" fill="#f2f2f2"/>
    <rect id="Rectangle_635" data-name="Rectangle 635" width="30" height="11" transform="translate(182 1715) rotate(90)" fill="#f2f2f2"/>
    <rect id="Rectangle_628-3" data-name="Rectangle 628" width="30" height="11" transform="translate(106 1715) rotate(90)" fill="#f2f2f2"/>
    <rect id="Rectangle_629-3" data-name="Rectangle 629" width="30" height="11" transform="translate(125 1715) rotate(90)" fill="#f2f2f2"/>
    <rect id="Rectangle_599-19" data-name="Rectangle 599" width="30" height="11" transform="translate(11 1753) rotate(90)" fill="#f2f2f2"/>
    <rect id="Rectangle_600-19" data-name="Rectangle 600" width="30" height="11" transform="translate(30 1753) rotate(90)" fill="#f2f2f2"/>
    <rect id="Rectangle_601-19" data-name="Rectangle 601" width="30" height="11" transform="translate(49 1753) rotate(90)" fill="#f2f2f2"/>
    <rect id="Rectangle_602-19" data-name="Rectangle 602" width="30" height="11" transform="translate(68 1753) rotate(90)" fill="#f2f2f2"/>
    <rect id="Rectangle_618-10" data-name="Rectangle 618" width="30" height="11" transform="translate(87 1753) rotate(90)" fill="#f2f2f2"/>
    <rect id="Rectangle_632-4" data-name="Rectangle 632" width="30" height="11" transform="translate(144 1753) rotate(90)" fill="#f2f2f2"/>
    <rect id="Rectangle_634-2" data-name="Rectangle 634" width="30" height="11" transform="translate(163 1753) rotate(90)" fill="#f2f2f2"/>
    <rect id="Rectangle_635-2" data-name="Rectangle 635" width="30" height="11" transform="translate(182 1753) rotate(90)" fill="#f2f2f2"/>
    <rect id="Rectangle_636" data-name="Rectangle 636" width="30" height="11" transform="translate(201 1753) rotate(90)" fill="#f2f2f2"/>
    <rect id="Rectangle_628-4" data-name="Rectangle 628" width="30" height="11" transform="translate(106 1753) rotate(90)" fill="#f2f2f2"/>
    <rect id="Rectangle_629-4" data-name="Rectangle 629" width="30" height="11" transform="translate(125 1753) rotate(90)" fill="#f2f2f2"/>
    <rect id="Rectangle_599-20" data-name="Rectangle 599" width="30" height="11" transform="translate(11 1791) rotate(90)" fill="#f2f2f2"/>
    <rect id="Rectangle_600-20" data-name="Rectangle 600" width="30" height="11" transform="translate(30 1791) rotate(90)" fill="#df4748"/>
    <rect id="Rectangle_601-20" data-name="Rectangle 601" width="30" height="11" transform="translate(49 1791) rotate(90)" fill="#df4748"/>
    <rect id="Rectangle_602-20" data-name="Rectangle 602" width="30" height="11" transform="translate(68 1791) rotate(90)" fill="#df4748"/>
    <rect id="Rectangle_618-11" data-name="Rectangle 618" width="30" height="11" transform="translate(87 1791) rotate(90)" fill="#df4748"/>
    <rect id="Rectangle_628-5" data-name="Rectangle 628" width="30" height="11" transform="translate(106 1791) rotate(90)" fill="#df4748"/>
    <rect id="Rectangle_629-5" data-name="Rectangle 629" width="30" height="11" transform="translate(125 1791) rotate(90)" fill="#f2f2f2"/>
    <rect id="Rectangle_599-21" data-name="Rectangle 599" width="30" height="11" transform="translate(11 1829) rotate(90)" fill="#f2f2f2"/>
    <rect id="Rectangle_600-21" data-name="Rectangle 600" width="30" height="11" transform="translate(30 1829) rotate(90)" fill="#df4748"/>
    <rect id="Rectangle_601-21" data-name="Rectangle 601" width="30" height="11" transform="translate(49 1829) rotate(90)" fill="#df4748"/>
    <rect id="Rectangle_602-21" data-name="Rectangle 602" width="30" height="11" transform="translate(68 1829) rotate(90)" fill="#df4748"/>
    <rect id="Rectangle_618-12" data-name="Rectangle 618" width="30" height="11" transform="translate(87 1829) rotate(90)" fill="#df4748"/>
    <rect id="Rectangle_628-6" data-name="Rectangle 628" width="30" height="11" transform="translate(106 1829) rotate(90)" fill="#df4748"/>
    <rect id="Rectangle_629-6" data-name="Rectangle 629" width="30" height="11" transform="translate(125 1829) rotate(90)" fill="#f2f2f2"/>
    <rect id="Rectangle_637" data-name="Rectangle 637" width="30" height="11" transform="translate(144 1829) rotate(90)" fill="#f2f2f2"/>
    <rect id="Rectangle_638" data-name="Rectangle 638" width="30" height="11" transform="translate(163 1829) rotate(90)" fill="#f2f2f2"/>
    <rect id="Rectangle_639" data-name="Rectangle 639" width="30" height="11" transform="translate(182 1829) rotate(90)" fill="#f2f2f2"/>
    <rect id="Rectangle_599-22" data-name="Rectangle 599" width="30" height="11" transform="translate(11 1867) rotate(90)" fill="#f2f2f2"/>
    <rect id="Rectangle_600-22" data-name="Rectangle 600" width="30" height="11" transform="translate(30 1867) rotate(90)" fill="#df4748"/>
    <rect id="Rectangle_601-22" data-name="Rectangle 601" width="30" height="11" transform="translate(49 1867) rotate(90)" fill="#df4748"/>
    <rect id="Rectangle_602-22" data-name="Rectangle 602" width="30" height="11" transform="translate(68 1867) rotate(90)" fill="#df4748"/>
    <rect id="Rectangle_599-23" data-name="Rectangle 599" width="30" height="11" transform="translate(11 1905) rotate(90)" fill="#f2f2f2"/>
    <rect id="Rectangle_600-23" data-name="Rectangle 600" width="30" height="11" transform="translate(30 1905) rotate(90)" fill="#f2f2f2"/>
    <rect id="Rectangle_601-23" data-name="Rectangle 601" width="30" height="11" transform="translate(49 1905) rotate(90)" fill="#f2f2f2"/>
    <rect id="Rectangle_602-23" data-name="Rectangle 602" width="30" height="11" transform="translate(68 1905) rotate(90)" fill="#df4748"/>
    <rect id="Rectangle_640" data-name="Rectangle 640" width="30" height="11" transform="translate(87 1905) rotate(90)" fill="#df4748"/>
    <rect id="Rectangle_641" data-name="Rectangle 641" width="30" height="11" transform="translate(106 1905) rotate(90)" fill="#df4748"/>
    <rect id="Rectangle_642" data-name="Rectangle 642" width="30" height="11" transform="translate(125 1905) rotate(90)" fill="#f2f2f2"/>
    <rect id="Rectangle_599-24" data-name="Rectangle 599" width="30" height="11" transform="translate(11 1943) rotate(90)" fill="#f2f2f2"/>
    <rect id="Rectangle_600-24" data-name="Rectangle 600" width="30" height="11" transform="translate(30 1943) rotate(90)" fill="#f2f2f2"/>
    <rect id="Rectangle_601-24" data-name="Rectangle 601" width="30" height="11" transform="translate(49 1943) rotate(90)" fill="#f2f2f2"/>
    <rect id="Rectangle_602-24" data-name="Rectangle 602" width="30" height="11" transform="translate(68 1943) rotate(90)" fill="#df4748"/>
    <rect id="Rectangle_640-2" data-name="Rectangle 640" width="30" height="11" transform="translate(87 1943) rotate(90)" fill="#df4748"/>
    <rect id="Rectangle_641-2" data-name="Rectangle 641" width="30" height="11" transform="translate(106 1943) rotate(90)" fill="#df4748"/>
    <rect id="Rectangle_642-2" data-name="Rectangle 642" width="30" height="11" transform="translate(125 1943) rotate(90)" fill="#f2f2f2"/>
    <rect id="Rectangle_643" data-name="Rectangle 643" width="30" height="11" transform="translate(144 1943) rotate(90)" fill="#f2f2f2"/>
    <rect id="Rectangle_644" data-name="Rectangle 644" width="30" height="11" transform="translate(163 1943) rotate(90)" fill="#f2f2f2"/>
    <rect id="Rectangle_645" data-name="Rectangle 645" width="30" height="11" transform="translate(182 1943) rotate(90)" fill="#f2f2f2"/>
    <rect id="Rectangle_646" data-name="Rectangle 646" width="30" height="11" transform="translate(201 1943) rotate(90)" fill="#f2f2f2"/>
  </g>
</svg>
