<svg id="c--4" xmlns="http://www.w3.org/2000/svg" width="66.923" height="75.216" viewBox="0 0 66.923 75.216">
  <path id="Tracé_20" data-name="Tracé 20" d="M66.92,22.114a6.64,6.64,0,0,0-.818-3.341,6.388,6.388,0,0,0-2.421-2.359Q50.317,8.708,36.947,1.012a6.563,6.563,0,0,0-7.113.071C26.288,3.174,8.534,13.346,3.243,16.411A6.18,6.18,0,0,0,0,22.111Q0,37.608,0,53.1a6.665,6.665,0,0,0,.782,3.278A6.367,6.367,0,0,0,3.24,58.805C8.531,61.87,26.288,72.041,29.833,74.133a6.564,6.564,0,0,0,7.114.071q13.36-7.714,26.736-15.4a6.37,6.37,0,0,0,2.458-2.423,6.674,6.674,0,0,0,.782-3.278s0-20.657,0-30.988" transform="translate(0 0)" fill="#a179dc"/>
  <path id="Tracé_21" data-name="Tracé 21" d="M35.77,143.241,2.988,162.116a6.367,6.367,0,0,0,2.458,2.423c5.291,3.064,23.048,13.236,26.593,15.327a6.564,6.564,0,0,0,7.114.071q13.36-7.714,26.736-15.4a6.37,6.37,0,0,0,2.458-2.423Z" transform="translate(-2.206 -105.734)" fill="#280068"/>
  <path id="Tracé_22" data-name="Tracé 22" d="M161.538,75.033a6.64,6.64,0,0,0-.818-3.341L128.182,90.427,160.759,109.3a6.68,6.68,0,0,0,.782-3.278s0-20.657,0-30.988" transform="translate(-94.618 -52.92)" fill="#390091"/>
  <g id="Groupe_7" data-name="Groupe 7" transform="translate(8.76 12.732)">
    <path id="Tracé_23" data-name="Tracé 23" d="M186.974,116.294v3.528H190.5v-3.528h1.764v3.528h3.528v1.764h-3.528v3.528h3.528v1.764h-3.528v3.528H190.5v-3.528h-3.528v3.528H185.21v-3.528h-3.528v-1.764h3.528v-3.528h-3.528v-1.764h3.528v-3.528Zm3.528,5.292h-3.528v3.528H190.5Z" transform="translate(-142.869 -98.575)" fill="#fff"/>
    <path id="Tracé_24" data-name="Tracé 24" d="M58.332,48.625a24.866,24.866,0,0,1,21.54,12.426l-.042-.071L69,67.214a12.38,12.38,0,0,0-10.53-6.1h-.141a12.387,12.387,0,1,0,10.794,18.46l-.052.09,10.811,6.263A24.867,24.867,0,0,1,58.609,98.375l-.277,0a24.876,24.876,0,1,1,0-49.751Z" transform="translate(-33.456 -48.625)" fill="#fff"/>
  </g>
</svg>
