<svg id="layer1" xmlns="http://www.w3.org/2000/svg" width="80.71" height="113.922" viewBox="0 0 80.71 113.922">
  <g id="g3013" transform="translate(0 0)">
    <path id="polygon2989" d="M155.343,100.62l-7.353,82.371-33.051,9.163L81.978,183,74.633,100.62Z" transform="translate(-74.633 -78.232)" fill="#264de4"/>
    <path id="polygon2991" d="M282.707,201.284l6.284-70.39H256v77.794Z" transform="translate(-215.645 -101.769)" fill="#2965f1"/>
    <path id="polygon2993" d="M150.31,268.217l.906,10.1h22.611v-10.1Z" transform="translate(-133.472 -208.537)" fill="#ebebeb"/>
    <path id="polygon2995" d="M167.468,176.305H142.132l.919,10.1h24.418Z" transform="translate(-127.113 -137.076)" fill="#ebebeb"/>
    <path id="polygon2997" d="M178.568,357.931V347.418l-.044.012-11.253-3.039-.719-8.058H156.409l1.416,15.865,20.7,5.746Z" transform="translate(-138.213 -261.497)" fill="#ebebeb"/>
    <path id="path2999" d="M160,0h12.238V5.118h-7.12v5.118h7.12v5.118H160Z" transform="translate(-141.005)" fill="#f2f2f2"/>
    <path id="path3001" d="M226,0h12.238V4.45h-7.12v.89h7.12V15.575H226V10.9h7.12v-.89H226Z" transform="translate(-192.32)" fill="#f2f2f2"/>
    <path id="path3003" d="M292,0h12.238V4.45h-7.12v.89h7.12V15.575H292V10.9h7.12v-.89H292Z" transform="translate(-243.635)" fill="#f2f2f2"/>
    <path id="polygon3005" d="M268.285,206.86l-1.173,13.1-11.269,3.042v10.512l20.714-5.741.152-1.707,2.374-26.6.247-2.713,1.824-20.451H255.843v10.1h14.238l-.919,10.347H255.843v10.1Z" transform="translate(-215.523 -137.076)" fill="#fff"/>
  </g>
</svg>
