<svg id="HTML5_Logo" xmlns="http://www.w3.org/2000/svg" width="80.71" height="113.922" viewBox="0 0 80.71 113.922">
  <path id="Tracé_1" data-name="Tracé 1" d="M81.978,183,74.633,100.62h80.71l-7.353,82.371-33.051,9.163Z" transform="translate(-74.633 -78.232)" fill="#e44d26"/>
  <path id="Tracé_2" data-name="Tracé 2" d="M256,208.688l26.707-7.4,6.284-70.39H256Z" transform="translate(-215.645 -101.769)" fill="#f16529"/>
  <path id="Tracé_3" data-name="Tracé 3" d="M167.468,196.756H154.1l-.923-10.347h14.294v-10.1H142.132l.242,2.711,2.483,27.844h22.611Z" transform="translate(-127.113 -137.076)" fill="#ebebeb"/>
  <path id="Tracé_4" data-name="Tracé 4" d="M178.568,347.418l-.044.012-11.253-3.039-.719-8.058H156.409l1.416,15.865,20.7,5.746.047-.013Z" transform="translate(-138.213 -261.497)" fill="#ebebeb"/>
  <path id="Tracé_5" data-name="Tracé 5" d="M108.382,0h5.135V5.073h4.7V0h5.135V15.363h-5.135V10.218h-4.7v5.144h-5.135V0Z" transform="translate(-100.873)"/>
  <path id="Tracé_6" data-name="Tracé 6" d="M190.2,5.094h-4.52V0h14.178V5.094h-4.522V15.363H190.2V5.094Z" transform="translate(-160.97)"/>
  <path id="Tracé_7" data-name="Tracé 7" d="M259.511,0h5.354l3.294,5.4,3.29-5.4H276.8V15.363h-5.114V7.748l-3.533,5.462h-.088l-3.535-5.462v7.615h-5.024Z" transform="translate(-218.375)"/>
  <path id="Tracé_8" data-name="Tracé 8" d="M348.72,0h5.136V10.285h7.221v5.078H348.72Z" transform="translate(-287.734)"/>
  <path id="Tracé_9" data-name="Tracé 9" d="M255.843,268.217v10.1h12.442l-1.173,13.1-11.269,3.042v10.512l20.714-5.741.152-1.707,2.374-26.6.247-2.713H255.843Z" transform="translate(-215.523 -208.538)" fill="#fff"/>
  <path id="Tracé_10" data-name="Tracé 10" d="M255.843,176.305v10.1h24.406l.2-2.271.46-5.122.242-2.711Z" transform="translate(-215.523 -137.076)" fill="#fff"/>
</svg>
