<svg xmlns="http://www.w3.org/2000/svg" width="84.229" height="84.249" viewBox="0 0 84.229 84.249">
  <g id="Illustrator" transform="translate(0 0)">
    <path id="_16" d="M-2252.444-270.6h57.916a13.149,13.149,0,0,1,13.156,13.156v57.936a13.149,13.149,0,0,1-13.156,13.156h-57.916a13.149,13.149,0,0,1-13.156-13.156v-57.916A13.153,13.153,0,0,1-2252.444-270.6Z" transform="translate(2265.6 270.6)" fill="#300"/>
    <path id="_30" d="M-2151.852-121.254h-12.859l-2.635,8.579a.663.663,0,0,1-.674.5h-6.518c-.377,0-.5-.2-.4-.614l11.1-32.059c.119-.337.218-.713.337-1.149a7.682,7.682,0,0,0,.218-1.9.366.366,0,0,1,.3-.4h8.956c.257,0,.416.1.436.277l12.661,35.269c.119.376,0,.555-.337.555h-7.232a.519.519,0,0,1-.555-.4Zm-10.917-5.924h9.431c-.218-.733-.99-2.457-1.288-3.388s-.713-1.664-1.03-2.715c-.337-1.05-.674-2.12-1.01-3.17s-.634-2.08-.932-3.071c-.277-.991-.535-1.882-.752-2.695h-.06c-.317,1.506-.713,2.992-1.169,4.458-.515,1.664-1.05,3.368-1.585,5.112-.535,1.763-1.09,4-1.605,5.469Z" transform="translate(2192.926 172.532)" fill="#ff9a00"/>
    <path id="_31" d="M-1982.17-153.943a4.078,4.078,0,0,1-3.071-1.228,4.441,4.441,0,0,1-1.169-3.17,4.109,4.109,0,0,1,1.249-3.091,4.272,4.272,0,0,1,3.091-1.189,4.219,4.219,0,0,1,3.15,1.189,4.32,4.32,0,0,1,1.149,3.091,4.374,4.374,0,0,1-1.189,3.17A4.31,4.31,0,0,1-1982.17-153.943Zm-3.606,29.741v-25.441c0-.337.139-.5.436-.5h6.321c.3,0,.436.159.436.5V-124.2c0,.376-.139.555-.436.555h-6.261C-1985.6-123.648-1985.776-123.826-1985.776-124.2Z" transform="translate(2041.731 184.021)" fill="#ff9a00"/>
  </g>
</svg>
