<svg id="adobe-xd" xmlns="http://www.w3.org/2000/svg" width="86.409" height="84.249" viewBox="0 0 86.409 84.249">
  <path id="Tracé_25" data-name="Tracé 25" d="M15.3,0H71.107a15.289,15.289,0,0,1,15.3,15.3V68.947a15.289,15.289,0,0,1-15.3,15.3H15.3A15.289,15.289,0,0,1,0,68.947V15.3A15.289,15.289,0,0,1,15.3,0Z" fill="#470137"/>
  <g id="Groupe_8" data-name="Groupe 8" transform="translate(12.566 18.494)">
    <path id="Tracé_26" data-name="Tracé 26" d="M67.833,54.956,57.024,72.749,68.553,91.619a.617.617,0,0,1,.072.431c-.036.144-.18.036-.4.072h-8.25c-.576,0-.973-.036-1.225-.4-.757-1.51-1.549-2.983-2.306-4.493-.757-1.474-1.585-2.983-2.45-4.529s-1.729-3.091-2.594-4.673h-.072c-.757,1.546-1.585,3.091-2.414,4.637s-1.657,3.091-2.45,4.6c-.829,1.51-1.657,3.055-2.486,4.529-.144.359-.432.4-.829.4H35.227c-.144,0-.252.072-.252-.108a.5.5,0,0,1,.072-.4l11.2-18.331L35.335,54.92c-.108-.144-.144-.288-.072-.359a.418.418,0,0,1,.36-.144H43.8a2.131,2.131,0,0,1,.5.072,1.021,1.021,0,0,1,.36.323c.685,1.546,1.477,3.091,2.306,4.637.865,1.546,1.693,3.055,2.594,4.565.865,1.51,1.657,3.019,2.414,4.565h.072c.757-1.582,1.549-3.127,2.342-4.637s1.621-3.019,2.45-4.529,1.621-3.055,2.414-4.529a.611.611,0,0,1,.216-.359.688.688,0,0,1,.468-.072h7.6a.332.332,0,0,1,.4.252c.036.036-.036.18-.108.252ZM84.478,92.877a17.947,17.947,0,0,1-7.746-1.617,12.55,12.55,0,0,1-5.44-4.888,15.524,15.524,0,0,1-1.982-8.2,14.736,14.736,0,0,1,1.982-7.584,14.945,14.945,0,0,1,5.728-5.571,18.464,18.464,0,0,1,9.115-2.085,6.448,6.448,0,0,1,.757.036c.324.036.685.036,1.117.072V51.685c0-.252.108-.4.36-.4h7.314a.323.323,0,0,1,.36.252V85.832c0,.647.036,1.366.072,2.157.072.755.108,1.474.144,2.085a.584.584,0,0,1-.36.575,27.564,27.564,0,0,1-5.873,1.725,31.853,31.853,0,0,1-5.548.5Zm3.531-7.189V69.873a9.233,9.233,0,0,0-.973-.18c-.4-.036-.793-.072-1.189-.072a8.9,8.9,0,0,0-4.071.935,8.071,8.071,0,0,0-3.062,2.66,7.954,7.954,0,0,0-1.189,4.565,10,10,0,0,0,.612,3.7,7.023,7.023,0,0,0,1.621,2.552,6.227,6.227,0,0,0,2.45,1.438,9.451,9.451,0,0,0,2.99.467c.54,0,1.045-.036,1.513-.072A3.158,3.158,0,0,0,88.008,85.688Z" transform="translate(-34.961 -51.284)" fill="#ff61f6"/>
  </g>
</svg>
