<?xml version="1.0" standalone="no"?>
<!DOCTYPE svg PUBLIC "-//W3C//DTD SVG 20010904//EN"
 "http://www.w3.org/TR/2001/REC-SVG-20010904/DTD/svg10.dtd">
<svg version="1.0" xmlns="http://www.w3.org/2000/svg"
 width="1134.000000pt" height="1134.000000pt" viewBox="0 0 1134.000000 1134.000000"
 preserveAspectRatio="xMidYMid meet">
<metadata>
Created by potrace 1.14, written by Peter Selinger 2001-2017
</metadata>
<g transform="translate(0.000000,1134.000000) scale(0.100000,-0.100000)"
fill="#000000" stroke="none">
<path d="M812 5675 c0 -3116 3 -5666 6 -5666 4 -1 513 -2 1130 -3 993 -1 1125
1 1131 14 3 8 6 1684 5 3723 0 2039 3 3704 6 3700 13 -14 171 -241 400 -573
123 -179 236 -343 252 -365 16 -22 166 -238 333 -480 167 -242 323 -468 347
-503 24 -34 58 -84 76 -110 18 -26 109 -157 202 -292 93 -135 172 -249 177
-255 5 -5 25 -35 45 -65 50 -74 304 -442 315 -455 4 -6 26 -37 49 -70 112
-165 288 -421 293 -425 3 -3 11 -13 16 -22 6 -9 24 -36 40 -60 56 -79 390
-563 420 -608 16 -25 32 -47 35 -50 3 -3 34 -48 70 -100 35 -52 68 -99 72
-105 5 -5 109 -156 233 -335 470 -682 569 -825 577 -828 4 -2 8 -8 8 -13 0 -5
21 -39 48 -77 26 -37 84 -122 130 -188 46 -65 189 -272 318 -459 129 -187 242
-349 250 -360 8 -11 22 -32 32 -46 18 -28 123 -181 213 -309 28 -41 84 -122
124 -180 l73 -105 1148 0 1149 0 3 5668 2 5667 -1135 0 -1135 0 0 -3726 0
-3726 -37 53 c-32 47 -350 507 -544 787 -35 51 -68 100 -74 109 -5 9 -16 24
-22 32 -7 9 -138 198 -292 421 -342 496 -357 518 -401 579 -19 27 -201 291
-405 585 -203 295 -511 740 -683 989 -172 248 -330 477 -350 507 -20 30 -41
60 -47 67 -5 6 -34 46 -63 90 -79 116 -251 365 -268 388 -8 11 -43 61 -77 110
-34 50 -170 247 -302 438 -132 191 -276 400 -321 465 -96 139 -429 620 -444
642 -6 8 -43 62 -83 120 -88 127 -175 253 -236 340 -25 36 -88 128 -142 205
-53 77 -125 182 -160 232 -35 51 -95 138 -133 193 l-70 100 -1152 0 -1152 0 0
-5665z"/>
</g>
</svg>
