<svg id="vlpa" xmlns="http://www.w3.org/2000/svg" width="77.885" height="75.937" viewBox="0 0 77.885 75.937">
  <g id="vlpb">
    <g id="vlpc">
      <g id="vlpd">
        <path id="Tracé_28" data-name="Tracé 28" d="M13.792,0h50.3A13.78,13.78,0,0,1,77.884,13.792V62.145A13.78,13.78,0,0,1,64.092,75.937h-50.3A13.78,13.78,0,0,1,0,62.145V13.792A13.78,13.78,0,0,1,13.792,0Z" fill="#00005b"/>
      </g>
    </g>
  </g>
  <g id="vlpe" transform="translate(9.635 19.536)">
    <g id="vlpf">
      <path id="Tracé_29" data-name="Tracé 29" d="M51.339,86.1H39.267L36.8,93.755a.568.568,0,0,1-.617.454h-6.1c-.357,0-.454-.195-.357-.584l10.45-29.953c.1-.325.195-.617.325-1.006a11.335,11.335,0,0,0,.195-2.109.322.322,0,0,1,.26-.357h8.405c.227,0,.389.1.422.26l11.845,33.1c.1.357,0,.519-.325.519H54.519A.49.49,0,0,1,54,93.723l-2.661-7.788Zm-10.19-6.458h8.243c-.195-.681-.454-1.493-.746-2.337-.292-.876-.584-1.817-.876-2.791-.325-1.006-.617-1.98-.941-2.986s-.617-1.947-.876-2.888c-.26-.909-.487-1.752-.714-2.531h-.065a39.847,39.847,0,0,1-1.1,4.186c-.487,1.558-.974,3.18-1.493,4.8C42.155,76.75,41.636,78.276,41.149,79.639Z" transform="translate(-29.69 -60.2)" fill="#99f"/>
      <path id="Tracé_30" data-name="Tracé 30" d="M150.321,99.45H140.034a7.151,7.151,0,0,0,1.006,2.888,5.146,5.146,0,0,0,2.369,1.947,10.094,10.094,0,0,0,4.154.811,19.521,19.521,0,0,0,3.375-.357,12.186,12.186,0,0,0,2.888-.746c.162-.13.26-.065.26.26v4.965a1.629,1.629,0,0,1-.065.389.759.759,0,0,1-.227.227,13.883,13.883,0,0,1-3.245.974,21.922,21.922,0,0,1-4.608.389,15.379,15.379,0,0,1-6.231-1.136,10.927,10.927,0,0,1-4.089-3.083,11.908,11.908,0,0,1-2.239-4.251,16.812,16.812,0,0,1,.13-9.9,13.244,13.244,0,0,1,2.434-4.446,11.761,11.761,0,0,1,3.927-3.083,12.256,12.256,0,0,1,5.419-1.006,11.723,11.723,0,0,1,5.03,1.006,8.938,8.938,0,0,1,3.407,2.6,11.88,11.88,0,0,1,1.947,3.7,12.765,12.765,0,0,1,.617,3.959c0,.779-.032,1.46-.065,2.077-.065.617-.1,1.071-.13,1.363a.485.485,0,0,1-.454.422c-.195,0-.552.032-1.071.065a15.361,15.361,0,0,1-1.882.1C151.944,99.58,151.165,99.45,150.321,99.45Zm-10.287-4.738h6.847c.844,0,1.46,0,1.85-.032a1.587,1.587,0,0,0,.746-.26V94.1a3.724,3.724,0,0,0-.195-1.2,4.3,4.3,0,0,0-4.219-2.986,4.57,4.57,0,0,0-4.316,2.466A6.725,6.725,0,0,0,140.034,94.712Z" transform="translate(-99.271 -76.474)" fill="#99f"/>
    </g>
  </g>
</svg>
