<svg id="Layer_2_1_" xmlns="http://www.w3.org/2000/svg" width="86.409" height="84.249" viewBox="0 0 86.409 84.249">
  <g id="Surfaces">
    <g id="Photo_Surface">
      <g id="Outline_no_shadow">
        <path id="Tracé_17" data-name="Tracé 17" d="M15.3,0H71.107a15.289,15.289,0,0,1,15.3,15.3V68.947a15.289,15.289,0,0,1-15.3,15.3H15.3A15.289,15.289,0,0,1,0,68.947V15.3A15.289,15.289,0,0,1,15.3,0Z" fill="#001e36"/>
      </g>
    </g>
  </g>
  <g id="Outlined_Mnemonics_Logos" transform="translate(19.442 21.422)">
    <g id="Ps">
      <path id="Tracé_18" data-name="Tracé 18" d="M54,97.16V60.112c0-.252.108-.4.36-.4.612,0,1.188,0,2.016-.036.864-.036,1.764-.036,2.736-.072s2.016-.036,3.132-.072,2.2-.036,3.276-.036a21.17,21.17,0,0,1,7.417,1.116,12.857,12.857,0,0,1,4.825,2.952,11.464,11.464,0,0,1,2.628,4.1,13.78,13.78,0,0,1,.828,4.68,12.872,12.872,0,0,1-2.16,7.669,12.335,12.335,0,0,1-5.8,4.392,23.334,23.334,0,0,1-8.1,1.224c-.864,0-1.44,0-1.8-.036s-.864-.036-1.548-.036V97.124a.448.448,0,0,1-.4.5H54.432C54.144,97.628,54,97.484,54,97.16Zm7.849-30.5v12.1c.5.036.972.072,1.4.072h1.908a13.449,13.449,0,0,0,4.14-.648,6.192,6.192,0,0,0,2.952-1.908,5.563,5.563,0,0,0,1.116-3.708,5.926,5.926,0,0,0-.828-3.2,5.221,5.221,0,0,0-2.52-2.052,10.565,10.565,0,0,0-4.248-.72c-.936,0-1.764,0-2.448.036a8.244,8.244,0,0,0-1.476.036Z" transform="translate(-54 -59.5)" fill="#31a8ff"/>
      <path id="Tracé_19" data-name="Tracé 19" d="M158.906,92.437a12.744,12.744,0,0,0-3.456-1.224,18.979,18.979,0,0,0-4.032-.468,7.249,7.249,0,0,0-2.16.252,1.849,1.849,0,0,0-1.116.72,1.908,1.908,0,0,0-.288.972,1.6,1.6,0,0,0,.36.936,4.063,4.063,0,0,0,1.224.972c.828.432,1.692.828,2.556,1.188a26.077,26.077,0,0,1,5.545,2.628,8.377,8.377,0,0,1,2.844,2.988,7.772,7.772,0,0,1,.828,3.708,8.377,8.377,0,0,1-1.4,4.788,9.022,9.022,0,0,1-4.032,3.2,16.5,16.5,0,0,1-6.517,1.152,24.8,24.8,0,0,1-4.9-.468,14.523,14.523,0,0,1-3.672-1.152.708.708,0,0,1-.4-.684v-6.265a.391.391,0,0,1,.144-.324.274.274,0,0,1,.324.036,15.411,15.411,0,0,0,4.464,1.764,16.761,16.761,0,0,0,4.248.54,6.872,6.872,0,0,0,2.988-.5,1.673,1.673,0,0,0,.972-1.512,1.908,1.908,0,0,0-.864-1.44,15.27,15.27,0,0,0-3.528-1.692,22.028,22.028,0,0,1-5.113-2.592,9.322,9.322,0,0,1-2.736-3.06,7.725,7.725,0,0,1-.828-3.672,8.468,8.468,0,0,1,1.224-4.356,8.875,8.875,0,0,1,3.78-3.312,13.962,13.962,0,0,1,6.373-1.26,31.039,31.039,0,0,1,4.464.324,12.668,12.668,0,0,1,3.1.828.632.632,0,0,1,.36.324,1.808,1.808,0,0,1,.072.432v5.869a.443.443,0,0,1-.18.36A.959.959,0,0,1,158.906,92.437Z" transform="translate(-109.221 -75.371)" fill="#31a8ff"/>
    </g>
  </g>
</svg>
