<svg id="vlpa" xmlns="http://www.w3.org/2000/svg" width="77.383" height="75.448" viewBox="0 0 77.383 75.448">
  <g id="vlpb">
    <g id="vlpc">
      <g id="vlpd">
        <path id="Tracé_31" data-name="Tracé 31" d="M13.7,0H63.68a13.692,13.692,0,0,1,13.7,13.7V61.745a13.692,13.692,0,0,1-13.7,13.7H13.7A13.692,13.692,0,0,1,0,61.745V13.7A13.692,13.692,0,0,1,13.7,0Z" fill="#00005b"/>
      </g>
    </g>
  </g>
  <g id="vlpe" transform="translate(18.378 19.12)">
    <g id="vlpf">
      <path id="Tracé_32" data-name="Tracé 32" d="M57,93.058V59.848c0-.226.1-.355.322-.355.548,0,1.064,0,1.806-.032.774-.032,1.58-.032,2.45-.064s1.806-.032,2.805-.064,1.967-.032,2.934-.032a18.958,18.958,0,0,1,6.642,1,11.514,11.514,0,0,1,4.321,2.644,10.266,10.266,0,0,1,2.354,3.676,12.341,12.341,0,0,1,.742,4.192,11.527,11.527,0,0,1-1.935,6.868,11.046,11.046,0,0,1-5.191,3.934A20.9,20.9,0,0,1,67,82.708c-.774,0-1.29,0-1.612-.032s-.774-.032-1.386-.032v10.35a.4.4,0,0,1-.355.451H57.387c-.258,0-.387-.129-.387-.419Zm7.029-27.31V76.582c.451.032.871.064,1.257.064H67a12.044,12.044,0,0,0,3.708-.58,5.545,5.545,0,0,0,2.644-1.709,4.982,4.982,0,0,0,1-3.321,5.307,5.307,0,0,0-.742-2.87,4.676,4.676,0,0,0-2.257-1.838,9.461,9.461,0,0,0-3.8-.645c-.838,0-1.58,0-2.193.032a7.383,7.383,0,0,0-1.322.032Z" transform="translate(-57 -59.3)" fill="#99f"/>
      <path id="Tracé_33" data-name="Tracé 33" d="M146.309,84.039h5.643a.726.726,0,0,1,.677.516,3.273,3.273,0,0,1,.193.806c.064.322.129.677.161,1,.032.355.064.742.064,1.161a12,12,0,0,1,3.45-2.773,9.993,9.993,0,0,1,4.9-1.257.4.4,0,0,1,.451.355v6.416c0,.258-.161.355-.516.355a14.019,14.019,0,0,0-3.482.322,13.268,13.268,0,0,0-2.708.871A5.012,5.012,0,0,0,153.5,93v16.444c0,.322-.129.451-.419.451h-6.352a.446.446,0,0,1-.516-.387V91.52c0-.774,0-1.58-.032-2.418s-.032-1.677-.064-2.515c0-.742-.064-1.451-.129-2.193a.3.3,0,0,1,.226-.355c0-.032.064-.032.1,0Z" transform="translate(-117.291 -75.689)" fill="#99f"/>
    </g>
  </g>
</svg>
